<svg width="1065" height="1072" viewBox="0 0 1065 1072" fill="none" xmlns="http://www.w3.org/2000/svg">
<g opacity="0.04">
<path d="M1063.01 1034.05C1009.95 952.039 965.109 864.189 929.735 773.28C928.621 770.5 926.532 768.415 923.886 767.164C921.24 766.052 918.176 765.913 915.53 767.025C915.112 767.164 914.834 767.303 914.416 767.581C913.58 766.052 912.884 764.662 912.188 763.133C911.213 761.187 909.402 759.936 907.313 759.38H907.174C905.085 758.963 902.996 759.38 901.325 760.492C900.628 761.048 899.932 761.326 899.097 761.604C898.679 760.631 898.261 759.658 897.843 758.546C897.147 756.739 895.615 755.21 893.804 754.515C891.994 753.82 889.905 753.82 888.094 754.515C885.448 755.627 882.524 756.322 879.739 756.322L876.675 749.233C875.282 745.758 871.522 743.95 867.901 744.923C847.707 750.206 825.703 744.368 804.535 738.807C800.496 737.695 796.318 736.583 792.28 735.61C680.588 707.948 609.841 724.907 551.071 793.992C524.053 763.828 493.276 731.718 452.749 723.239C427.542 717.957 421.554 719.347 387.99 726.714L384.648 727.409C374.899 729.494 365.151 732.135 355.542 734.637C339.108 738.946 322.118 743.394 305.266 745.618C285.63 748.26 272.26 749.65 247.889 744.785C247.75 744.785 247.75 744.785 247.61 744.785C247.471 744.785 247.193 744.785 247.053 744.785C246.775 744.785 246.496 744.785 246.078 744.785C245.939 744.785 245.8 744.785 245.661 744.785C245.382 744.785 244.964 744.923 244.686 744.923C244.547 744.923 244.407 745.063 244.268 745.063C243.989 745.202 243.572 745.202 243.293 745.48C243.154 745.619 243.015 745.619 242.875 745.758C242.736 745.897 242.458 745.897 242.318 746.036L242.179 746.175C242.04 746.314 241.9 746.453 241.622 746.592C241.483 746.731 241.204 746.87 241.065 747.148C240.926 747.287 240.786 747.426 240.647 747.704C240.508 747.982 240.369 748.121 240.09 748.399L239.951 748.538C237.862 752.013 235.773 755.349 233.823 758.824C232.709 759.38 231.038 759.519 228.392 759.519C226.442 759.658 224.353 759.658 222.125 760.075C219.757 760.492 217.668 762.16 216.693 764.384C215.579 766.886 214.187 769.666 212.515 772.863C210.009 773.419 205.691 774.253 201.931 774.67C199.564 774.948 197.335 776.338 196.221 778.284C194.272 781.76 192.183 785.096 190.094 788.571C187.865 787.459 185.359 787.181 182.852 787.737C179.927 788.432 177.56 790.1 176.028 792.602C151.238 831.384 126.31 870.583 99.9885 912.145C86.0619 934.108 69.7678 956.21 52.6381 979.562C35.5083 1002.91 17.6823 1027.1 2.08453 1051.71C-0.143722 1055.18 -0.143731 1059.77 1.94526 1063.38C5.14838 1068.52 21.721 1068.11 21.8603 1068.11C213.908 1048.37 338.551 1036.28 475.31 1037.25C486.73 1042.39 496.061 1047.81 504.417 1052.68C511.937 1056.99 519.04 1061.16 526.699 1064.49C534.498 1067.97 546.336 1072 559.427 1072C569.593 1072 578.785 1069.5 586.862 1064.63C592.99 1060.88 597.725 1056.15 602.321 1051.57C606.917 1046.98 611.234 1042.67 615.969 1040.58C621.4 1038.08 628.781 1037.94 635.188 1037.94C809.966 1035.58 950.486 1039.89 1052.85 1050.87C1057.02 1051.29 1061.06 1049.34 1063.29 1045.73C1065.24 1042.11 1065.24 1037.53 1063.01 1034.05ZM788.38 750.067C792.28 751.04 795.901 752.013 800.496 753.264C821.525 758.824 843.251 764.662 865.116 760.77L869.433 770.778C901.743 846.535 932.242 918.4 974.997 983.315C941.99 979.979 909.542 969.276 875.421 958.156C853.974 951.066 831.692 943.838 809.131 938.417C757.045 926.185 708.859 925.907 665.687 937.722C623.907 949.259 586.862 973.029 561.098 1004.58C557.616 935.359 554.97 879.618 557.756 808.865C613.323 740.475 680.31 723.378 788.38 750.067ZM71.7175 1004.72C72.5531 1005.42 73.528 1005.97 74.5028 1006.11C96.7854 1011.81 119.346 1012.65 141.211 1010.7C126.449 1012.65 111.548 1014.04 96.7854 1014.87C86.619 1015.43 77.1489 1015.43 67.6788 1011.53C69.0714 1009.31 70.3249 1006.95 71.7175 1004.72ZM837.123 971.222L834.895 970.666C794.786 960.102 753.285 949.12 710.948 951.205C662.901 953.43 615.69 973.446 579.899 1005.7C603.156 980.674 634.63 961.77 669.726 952.178C710.391 941.058 756.21 941.197 805.788 953.012C827.653 958.156 849.518 965.384 870.826 972.334C893.944 979.979 917.48 987.624 941.294 992.907C909.681 989.293 878.207 981.925 847.986 974.141C844.365 973.168 840.744 972.195 837.123 971.222ZM233.823 987.625C239.533 985.539 242.736 984.149 246.218 982.62C249.142 981.369 252.206 980.118 256.941 978.311C302.063 961.075 355.542 958.017 415.565 968.998C450.939 975.392 474.057 987.207 495.504 1004.3C464.03 985.678 435.898 979.84 404.006 977.755C348.439 974.002 302.899 982.342 254.574 991.239L253.32 991.517C246.078 992.768 238.976 994.158 231.734 995.548L228.67 996.104C208.337 999.857 187.865 1003.75 167.115 1007.09C191.208 1002.36 213.908 994.992 233.823 987.625ZM102.495 982.62C129.931 1000.41 159.455 985.122 183.13 972.751L185.637 971.5C292.733 916.037 389.801 918.678 491.047 979.84C506.924 989.432 528.928 1004.44 542.576 1026.55C542.158 1026.68 541.74 1026.68 541.322 1026.82C505.392 990.127 477.26 965.106 418.35 954.403C355.82 943.004 299.835 946.34 252.067 964.411C247.053 966.218 243.989 967.608 240.926 968.859C237.583 970.249 234.38 971.639 228.949 973.585C189.536 988.18 138.565 1003.19 88.5687 994.019C91.9111 988.876 95.532 983.315 99.2922 977.616C99.5707 979.562 100.685 981.369 102.495 982.62ZM55.5627 1022.24C70.0463 1030.3 84.2514 1030.44 97.4817 1029.74C142.743 1027.38 187.865 1018.9 231.456 1010.7C239.672 1009.17 247.889 1007.64 255.966 1006.11L257.081 1005.83C304.431 997.077 349.135 988.876 402.892 992.49C438.265 994.853 467.372 1001.66 502.746 1026.68C496.479 1023.21 489.515 1019.73 481.577 1016.12C480.185 1015.56 478.792 1015.15 477.26 1015.15C344.818 1014.04 230.341 1024.74 41.6361 1043.78C46.5104 1036.55 51.1061 1029.33 55.5627 1022.24ZM554.692 1037.53H554.831C558.87 1037.53 563.048 1038.08 566.947 1038.5C571.822 1039.19 576.696 1039.89 581.57 1040.58C579.342 1042.67 577.114 1044.48 574.885 1045.87C561.516 1054.07 544.247 1048.51 535.195 1044.34C533.523 1043.64 531.852 1042.81 530.181 1041.98C538.398 1039.47 546.475 1037.53 554.692 1037.53ZM672.372 1006.53C700.503 1004.3 729.471 1007.36 757.463 1010.28L766.794 1011.26C782.949 1012.92 803.282 1014.59 825.425 1016.4C767.212 1015.29 703.567 1015.15 634.491 1015.98C631.567 1015.98 628.503 1016.12 625.16 1016.26C639.366 1011.12 655.242 1007.78 672.372 1006.53ZM1020.4 1013.9C977.364 1011.95 838.934 1003.61 768.326 996.382L758.995 995.409C730.306 992.49 700.782 989.432 671.257 991.656C638.251 994.158 609.423 1003.61 587.419 1019.04C620.843 987.624 665.965 968.164 711.784 965.94C752.032 964.133 792.279 974.697 831.413 984.983L833.502 985.539C837.123 986.512 840.744 987.486 844.365 988.32C897.425 1002.08 954.246 1014.04 1009.95 1008.75C1012.18 1008.48 1014.13 1007.36 1015.38 1005.56C1017.05 1008.34 1018.73 1011.12 1020.4 1013.9ZM996.861 994.853C996.722 994.853 996.583 994.853 996.443 994.853C996.443 994.714 996.583 994.575 996.583 994.436C996.722 994.575 996.722 994.714 996.861 994.853ZM974.439 954.681C939.901 897.967 913.162 835.832 885.448 770.639C885.727 770.639 886.145 770.5 886.423 770.5C914.555 836.527 943.522 897.272 974.439 954.681ZM546.336 1006.11C531.713 988.181 513.051 975.67 498.846 967.052C392.725 902.971 291.061 900.052 178.813 958.295L176.306 959.546C156.391 969.971 135.78 980.535 117.257 973.446C161.126 905.89 204.159 836.666 245.521 767.442C245.521 767.303 245.661 767.303 245.661 767.164C247.053 764.94 248.307 762.577 249.699 760.353C272.818 764.523 287.023 763.133 306.938 760.353C324.624 757.99 342.172 753.403 359.023 748.955H359.162C368.493 746.592 378.103 744.089 387.433 742.004L392.447 740.892C423.364 734.081 426.567 733.386 448.989 737.695C486.173 745.063 516.254 777.867 542.715 807.475C540.069 879.618 542.854 938.556 546.336 1006.11Z" fill="#252526"/>
<path d="M898.817 379.621C864.14 402 902.717 437.863 858.987 395.884C857.038 394.077 853.974 394.772 852.999 397.274C847.846 411.036 855.645 434.666 806.902 369.195C806.623 368.917 806.345 368.639 806.066 368.361C721.253 309.146 686.855 241.729 680.17 278.982C680.17 279.399 680.17 279.816 680.17 280.233C724.456 582.427 812.194 536.139 636.858 587.988C635.187 588.544 634.073 590.212 634.212 592.019C644.657 671.39 636.44 710.033 620.425 763.828C620.425 763.967 620.425 764.106 620.285 764.106C610.955 805.946 688.387 807.336 659.28 844.45C658.862 845.006 658.305 845.423 657.609 845.701C490.072 905.195 624.463 690.295 544.664 650.261C532.548 635.944 527.256 776.06 524.331 784.261C524.192 784.817 524.053 785.373 524.053 785.929C526.281 800.664 537.144 782.593 512.354 871.834C512.354 871.973 512.354 872.112 512.215 872.39C508.873 909.643 431.162 915.898 436.733 883.649C436.872 882.954 437.151 882.398 437.708 881.842C512.772 801.081 464.168 790.099 472.942 698.218C472.942 697.94 472.942 697.801 472.942 697.523C467.65 647.342 465.422 597.44 448.71 563.245C447.456 560.743 446.76 557.963 446.621 555.044C446.342 510.423 382.001 521.961 372.949 521.961C329.359 531.135 383.533 383.235 401.777 331.386C403.031 328.05 398.992 325.131 396.067 327.355C328.802 379.343 310.14 394.216 233.683 357.519C206.805 345.982 226.163 328.467 243.432 315.818C244.407 315.123 245.521 314.984 246.635 315.262C256.384 318.459 262.65 331.247 276.438 320.683C342.032 271.893 396.067 223.241 442.443 156.38C443 155.685 443.696 155.129 444.532 154.851C461.662 150.542 470.157 151.376 483.666 137.059C484.78 135.947 486.312 135.113 487.844 134.974C503.72 132.889 491.047 126.633 511.519 120.378C517.507 118.988 507.619 110.787 508.594 107.451C506.784 96.6085 511.797 89.3803 510.544 77.287C510.544 76.592 510.544 75.8969 510.683 75.3409C512.354 67.9737 516.115 58.7994 515.14 50.1812C514.861 48.2351 515.279 46.1501 516.532 44.621C542.297 9.17502 514.026 16.8202 596.889 0.139759C597.307 0.000754665 597.864 0.000746184 598.281 0.000746184C614.993 -0.138258 622.374 19.1833 637.833 24.7435C639.086 25.1605 640.2 25.9945 640.897 26.9675C647.164 35.4468 644.796 49.7642 646.05 61.1625C653.292 108.98 645.771 79.233 634.908 127.745C634.212 131.082 636.022 134.557 639.226 135.808C651.342 140.812 665.965 140.951 675.017 150.681C675.296 151.098 675.713 151.376 676.131 151.654C687.412 159.855 696.464 163.608 703.149 175.007C703.288 175.285 703.566 175.563 703.845 175.841C753.284 220.044 810.523 266.332 852.442 312.621C852.86 313.177 853.556 313.455 854.252 313.733C891.715 323.741 868.179 354.183 886.005 358.631C893.943 360.577 899.653 367.527 900.21 375.729C900.21 376.007 900.21 376.285 900.21 376.563C900.489 377.675 899.932 378.926 898.817 379.621Z" fill="#252526"/>
</g>
</svg>
