<svg width="420" height="272" viewBox="0 0 420 272" fill="none" xmlns="http://www.w3.org/2000/svg">
<g clip-path="url(#clip0_257_38009)">
<rect width="420" height="271.765" rx="10" fill="white"/>
<rect width="357" height="272" fill="url(#paint0_linear_257_38009)"/>
<g style="mix-blend-mode:soft-light" opacity="0.3">
<path d="M433.605 265.221C421.341 246.248 410.977 225.924 402.801 204.893C402.543 204.25 402.06 203.768 401.449 203.478C400.837 203.221 400.129 203.189 399.517 203.446C399.421 203.478 399.356 203.51 399.26 203.575C399.067 203.221 398.906 202.899 398.745 202.546C398.519 202.095 398.101 201.806 397.618 201.677H397.586C397.103 201.581 396.62 201.677 396.234 201.935C396.073 202.063 395.912 202.128 395.719 202.192C395.622 201.967 395.526 201.742 395.429 201.484C395.268 201.066 394.914 200.713 394.496 200.552C394.077 200.391 393.594 200.391 393.176 200.552C392.564 200.809 391.888 200.97 391.245 200.97L390.537 199.33C390.215 198.526 389.346 198.108 388.509 198.333C383.841 199.555 378.755 198.204 373.863 196.918C372.929 196.661 371.964 196.404 371.03 196.178C345.215 189.779 328.863 193.702 315.279 209.685C309.034 202.706 301.921 195.278 292.554 193.316C286.727 192.094 285.343 192.416 277.586 194.12L276.813 194.281C274.56 194.764 272.307 195.375 270.086 195.953C266.287 196.95 262.36 197.979 258.466 198.494C253.927 199.105 250.837 199.426 245.204 198.301C245.172 198.301 245.172 198.301 245.139 198.301C245.107 198.301 245.043 198.301 245.011 198.301C244.946 198.301 244.882 198.301 244.785 198.301C244.753 198.301 244.721 198.301 244.689 198.301C244.624 198.301 244.528 198.333 244.463 198.333C244.431 198.333 244.399 198.365 244.367 198.365C244.302 198.397 244.206 198.397 244.142 198.462C244.109 198.494 244.077 198.494 244.045 198.526C244.013 198.558 243.948 198.558 243.916 198.59L243.884 198.622C243.852 198.655 243.82 198.687 243.755 198.719C243.723 198.751 243.659 198.783 243.627 198.848C243.594 198.88 243.562 198.912 243.53 198.976C243.498 199.04 243.466 199.073 243.401 199.137L243.369 199.169C242.886 199.973 242.403 200.745 241.953 201.549C241.695 201.677 241.309 201.71 240.697 201.71C240.247 201.742 239.764 201.742 239.249 201.838C238.702 201.935 238.219 202.321 237.993 202.835C237.736 203.414 237.414 204.057 237.028 204.797C236.448 204.925 235.451 205.118 234.581 205.215C234.034 205.279 233.519 205.601 233.262 206.051C232.811 206.855 232.328 207.627 231.845 208.431C231.33 208.173 230.751 208.109 230.172 208.238C229.496 208.398 228.948 208.784 228.594 209.363C222.865 218.335 217.103 227.404 211.019 237.019C207.8 242.1 204.034 247.213 200.075 252.615C196.116 258.018 191.996 263.613 188.39 269.305C187.875 270.109 187.875 271.17 188.358 272.006C189.099 273.196 192.929 273.1 192.961 273.1C237.35 268.533 266.159 265.735 297.768 265.961C300.408 267.15 302.564 268.405 304.496 269.53C306.234 270.527 307.876 271.492 309.646 272.263C311.448 273.067 314.185 274 317.21 274C319.56 274 321.685 273.421 323.551 272.296C324.968 271.427 326.062 270.334 327.124 269.273C328.187 268.212 329.185 267.215 330.279 266.732C331.534 266.154 333.24 266.121 334.721 266.121C375.118 265.575 407.597 266.572 431.255 269.112C432.221 269.208 433.155 268.758 433.67 267.922C434.12 267.086 434.12 266.025 433.605 265.221ZM370.129 199.523C371.03 199.748 371.867 199.973 372.929 200.262C377.79 201.549 382.811 202.899 387.865 201.999L388.863 204.314C396.331 221.84 403.38 238.466 413.262 253.483C405.633 252.712 398.133 250.235 390.247 247.663C385.29 246.023 380.14 244.351 374.925 243.096C362.886 240.267 351.749 240.202 341.77 242.936C332.114 245.605 323.551 251.104 317.597 258.404C316.792 242.389 316.18 229.494 316.824 213.126C329.667 197.304 345.15 193.349 370.129 199.523ZM204.485 258.436C204.678 258.596 204.903 258.725 205.129 258.757C210.279 260.076 215.493 260.269 220.547 259.818C217.135 260.269 213.691 260.59 210.279 260.783C207.929 260.912 205.74 260.912 203.551 260.011C203.873 259.497 204.163 258.95 204.485 258.436ZM381.395 250.686L380.88 250.557C371.609 248.113 362.017 245.573 352.232 246.055C341.127 246.57 330.215 251.2 321.942 258.661C327.318 252.872 334.592 248.499 342.704 246.28C352.103 243.707 362.693 243.74 374.152 246.473C379.206 247.663 384.26 249.335 389.185 250.943C394.528 252.712 399.968 254.48 405.472 255.702C398.165 254.866 390.891 253.162 383.906 251.361C383.069 251.136 382.232 250.911 381.395 250.686ZM241.953 254.48C243.272 253.998 244.013 253.676 244.817 253.323C245.493 253.033 246.202 252.744 247.296 252.326C257.725 248.338 270.086 247.631 283.959 250.171C292.135 251.65 297.479 254.384 302.436 258.339C295.161 254.03 288.659 252.679 281.287 252.197C268.444 251.329 257.918 253.258 246.749 255.316L246.459 255.381C244.785 255.67 243.144 255.992 241.47 256.313L240.762 256.442C236.062 257.31 231.33 258.211 226.534 258.982C232.103 257.889 237.35 256.185 241.953 254.48ZM211.599 253.323C217.94 257.439 224.764 253.901 230.236 251.039L230.815 250.75C255.569 237.919 278.004 238.53 301.406 252.679C305.075 254.898 310.161 258.371 313.315 263.484C313.219 263.517 313.122 263.517 313.026 263.549C304.721 255.059 298.219 249.271 284.603 246.795C270.15 244.158 257.21 244.929 246.169 249.11C245.011 249.528 244.302 249.85 243.594 250.139C242.822 250.461 242.081 250.782 240.826 251.232C231.717 254.609 219.935 258.082 208.38 255.96C209.152 254.77 209.989 253.483 210.858 252.165C210.923 252.615 211.18 253.033 211.599 253.323ZM200.751 262.488C204.099 264.353 207.382 264.385 210.44 264.224C220.901 263.677 231.33 261.716 241.405 259.818C243.305 259.465 245.204 259.111 247.071 258.757L247.328 258.693C258.272 256.667 268.605 254.77 281.03 255.606C289.206 256.152 295.933 257.728 304.109 263.517C302.661 262.713 301.051 261.909 299.217 261.073C298.895 260.944 298.573 260.848 298.219 260.848C267.607 260.59 241.148 263.066 197.532 267.472C198.659 265.8 199.721 264.128 200.751 262.488ZM316.116 266.025H316.148C317.082 266.025 318.047 266.154 318.948 266.25C320.075 266.411 321.202 266.572 322.328 266.732C321.813 267.215 321.298 267.633 320.783 267.954C317.693 269.852 313.702 268.565 311.609 267.601C311.223 267.44 310.837 267.247 310.451 267.054C312.35 266.475 314.217 266.025 316.116 266.025ZM343.315 258.854C349.818 258.339 356.513 259.047 362.983 259.722L365.14 259.947C368.873 260.333 373.573 260.719 378.691 261.137C365.236 260.88 350.526 260.847 334.56 261.04C333.884 261.04 333.176 261.073 332.403 261.105C335.687 259.915 339.356 259.143 343.315 258.854ZM423.755 260.558C413.809 260.108 381.813 258.178 365.494 256.506L363.337 256.281C356.706 255.606 349.882 254.898 343.058 255.413C335.429 255.992 328.766 258.178 323.68 261.748C331.406 254.48 341.835 249.978 352.425 249.464C361.728 249.046 371.03 251.49 380.075 253.869L380.558 253.998C381.395 254.223 382.232 254.448 383.069 254.641C395.333 257.825 408.466 260.59 421.341 259.368C421.856 259.304 422.307 259.047 422.597 258.629C422.983 259.272 423.369 259.915 423.755 260.558ZM418.316 256.152C418.283 256.152 418.251 256.152 418.219 256.152C418.219 256.12 418.251 256.088 418.251 256.056C418.283 256.088 418.283 256.12 418.316 256.152ZM413.133 246.859C405.15 233.739 398.97 219.364 392.564 204.282C392.629 204.282 392.725 204.25 392.79 204.25C399.292 219.525 405.987 233.578 413.133 246.859ZM314.185 258.757C310.805 254.609 306.491 251.715 303.208 249.721C278.68 234.896 255.182 234.221 229.238 247.695L228.659 247.984C224.056 250.396 219.292 252.84 215.011 251.2C225.15 235.572 235.096 219.557 244.657 203.543C244.657 203.51 244.689 203.51 244.689 203.478C245.011 202.964 245.3 202.417 245.622 201.903C250.966 202.867 254.249 202.546 258.852 201.903C262.94 201.356 266.996 200.295 270.89 199.266H270.923C273.079 198.719 275.3 198.14 277.457 197.658L278.616 197.4C285.762 195.825 286.502 195.664 291.685 196.661C300.279 198.365 307.232 205.954 313.348 212.804C312.736 229.494 313.38 243.129 314.185 258.757Z" fill="#252526"/>
<path d="M395.655 113.823C387.64 119 396.556 127.297 386.449 117.585C385.998 117.167 385.29 117.328 385.065 117.907C383.874 121.09 385.676 126.557 374.41 111.411C374.346 111.347 374.281 111.282 374.217 111.218C354.614 97.5188 346.663 81.9223 345.118 90.5406C345.118 90.6371 345.118 90.7335 345.118 90.83C355.354 160.741 375.633 150.032 335.108 162.027C334.721 162.156 334.464 162.542 334.496 162.96C336.91 181.322 335.011 190.261 331.309 202.706C331.309 202.739 331.309 202.771 331.277 202.771C329.12 212.45 347.017 212.772 340.29 221.358C340.193 221.487 340.065 221.583 339.904 221.647C301.18 235.411 332.243 185.695 313.799 176.434C310.998 173.121 309.775 205.536 309.099 207.434C309.067 207.562 309.035 207.691 309.035 207.82C309.55 211.228 312.06 207.048 306.331 227.693C306.331 227.725 306.331 227.757 306.299 227.822C305.526 236.44 287.565 237.887 288.852 230.426C288.884 230.266 288.949 230.137 289.077 230.008C306.427 211.325 295.193 208.784 297.221 187.528C297.221 187.464 297.221 187.432 297.221 187.367C295.998 175.758 295.483 164.214 291.62 156.303C291.331 155.724 291.17 155.081 291.138 154.406C291.073 144.083 276.202 146.752 274.11 146.752C264.035 148.875 276.556 114.659 280.773 102.664C281.062 101.892 280.129 101.217 279.453 101.731C263.906 113.758 259.592 117.199 241.921 108.71C235.708 106.041 240.183 101.989 244.174 99.0624C244.399 98.9016 244.657 98.8694 244.914 98.9337C247.168 99.6734 248.616 102.632 251.803 100.188C266.964 88.9005 279.453 77.6454 290.172 62.1775C290.301 62.0167 290.462 61.8881 290.655 61.8238C294.614 60.8269 296.578 61.0199 299.7 57.7076C299.957 57.4504 300.311 57.2574 300.665 57.2253C304.335 56.7429 301.406 55.2958 306.138 53.8487C307.522 53.5271 305.236 51.6298 305.462 50.858C305.043 48.3497 306.202 46.6775 305.912 43.8798C305.912 43.719 305.912 43.5583 305.944 43.4296C306.331 41.7253 307.2 39.6029 306.975 37.6091C306.91 37.1589 307.007 36.6765 307.296 36.3228C313.251 28.1226 306.717 29.8913 325.869 26.0323C325.966 26.0002 326.095 26.0002 326.191 26.0002C330.054 25.968 331.76 30.4379 335.333 31.7242C335.623 31.8207 335.88 32.0137 336.041 32.2388C337.49 34.2004 336.942 37.5126 337.232 40.1495C338.906 51.2118 337.168 44.33 334.657 55.5531C334.496 56.3248 334.914 57.1288 335.655 57.4182C338.455 58.5759 341.835 58.608 343.927 60.8591C343.992 60.9555 344.088 61.0199 344.185 61.0842C346.792 62.9815 348.884 63.8497 350.429 66.4867C350.462 66.551 350.526 66.6153 350.59 66.6796C362.017 76.9057 375.247 87.6142 384.936 98.3227C385.033 98.4514 385.193 98.5157 385.354 98.58C394.013 100.895 388.573 107.938 392.693 108.967C394.528 109.417 395.848 111.025 395.977 112.922C395.977 112.987 395.977 113.051 395.977 113.115C396.041 113.373 395.912 113.662 395.655 113.823Z" fill="#252526"/>
</g>
<path d="M59.6106 184.949C58.3817 183.05 57.3431 181.015 56.5238 178.909C56.498 178.845 56.4496 178.797 56.3883 178.768C56.3271 178.742 56.2561 178.739 56.1948 178.765C56.1851 178.768 56.1787 178.771 56.169 178.777C56.1497 178.742 56.1335 178.71 56.1174 178.674C56.0948 178.629 56.0529 178.6 56.0045 178.587H56.0013C55.9529 178.578 55.9045 178.587 55.8658 178.613C55.8497 178.626 55.8336 178.633 55.8142 178.639C55.8045 178.616 55.7949 178.594 55.7852 178.568C55.7691 178.526 55.7336 178.491 55.6916 178.475C55.6497 178.459 55.6013 178.459 55.5594 178.475C55.4981 178.501 55.4304 178.517 55.3659 178.517L55.2949 178.352C55.2627 178.272 55.1756 178.23 55.0917 178.253C54.624 178.375 54.1144 178.24 53.6241 178.111C53.5306 178.085 53.4338 178.059 53.3403 178.037C50.7535 177.396 49.115 177.789 47.7538 179.389C47.1281 178.69 46.4153 177.947 45.4767 177.75C44.8929 177.628 44.7542 177.66 43.9768 177.831L43.8994 177.847C43.6736 177.895 43.4479 177.956 43.2253 178.014C42.8447 178.114 42.4512 178.217 42.0609 178.269C41.6061 178.33 41.2965 178.362 40.732 178.249C40.7288 178.249 40.7288 178.249 40.7256 178.249C40.7224 178.249 40.7159 178.249 40.7127 178.249C40.7062 178.249 40.6998 178.249 40.6901 178.249C40.6869 178.249 40.6836 178.249 40.6804 178.249C40.674 178.249 40.6643 178.253 40.6578 178.253C40.6546 178.253 40.6514 178.256 40.6482 178.256C40.6417 178.259 40.632 178.259 40.6256 178.266C40.6224 178.269 40.6191 178.269 40.6159 178.272C40.6127 178.275 40.6062 178.275 40.603 178.278L40.5998 178.282C40.5966 178.285 40.5933 178.288 40.5869 178.291C40.5837 178.294 40.5772 178.298 40.574 178.304C40.5708 178.307 40.5675 178.311 40.5643 178.317C40.5611 178.323 40.5579 178.327 40.5514 178.333L40.5482 178.336C40.4998 178.417 40.4514 178.494 40.4063 178.575C40.3805 178.587 40.3417 178.591 40.2805 178.591C40.2353 178.594 40.1869 178.594 40.1353 178.604C40.0805 178.613 40.0321 178.652 40.0095 178.703C39.9837 178.761 39.9515 178.826 39.9128 178.9C39.8547 178.913 39.7547 178.932 39.6676 178.942C39.6128 178.948 39.5612 178.98 39.5354 179.025C39.4902 179.106 39.4419 179.183 39.3935 179.264C39.3419 179.238 39.2838 179.231 39.2257 179.244C39.158 179.26 39.1032 179.299 39.0677 179.357C38.4936 180.255 37.9162 181.163 37.3066 182.126C36.9841 182.634 36.6067 183.146 36.21 183.687C35.8132 184.228 35.4004 184.788 35.0391 185.358C34.9875 185.438 34.9875 185.545 35.0359 185.628C35.1101 185.747 35.4939 185.738 35.4971 185.738C39.945 185.281 42.8318 185 45.9992 185.023C46.2637 185.142 46.4798 185.268 46.6733 185.38C46.8475 185.48 47.012 185.577 47.1894 185.654C47.37 185.734 47.6442 185.828 47.9473 185.828C48.1828 185.828 48.3957 185.77 48.5828 185.657C48.7247 185.57 48.8343 185.461 48.9408 185.355C49.0472 185.248 49.1472 185.149 49.2569 185.1C49.3827 185.042 49.5536 185.039 49.702 185.039C53.7499 184.984 57.0044 185.084 59.3751 185.338C59.4719 185.348 59.5654 185.303 59.617 185.219C59.6622 185.136 59.6622 185.029 59.6106 184.949ZM53.25 178.372C53.3403 178.394 53.4242 178.417 53.5306 178.446C54.0176 178.575 54.5208 178.71 55.0272 178.62L55.1272 178.851C55.8755 180.606 56.5819 182.27 57.5721 183.774C56.8076 183.697 56.0561 183.449 55.2659 183.191C54.7692 183.027 54.2531 182.86 53.7306 182.734C52.5243 182.451 51.4082 182.444 50.4084 182.718C49.4407 182.985 48.5828 183.536 47.9861 184.266C47.9054 182.663 47.8441 181.372 47.9086 179.734C49.1956 178.15 50.747 177.754 53.25 178.372ZM36.6518 184.27C36.6712 184.286 36.6938 184.299 36.7163 184.302C37.2324 184.434 37.7549 184.453 38.2613 184.408C37.9194 184.453 37.5743 184.485 37.2324 184.505C36.997 184.518 36.7776 184.518 36.5583 184.427C36.5906 184.376 36.6196 184.321 36.6518 184.27ZM54.3789 183.494L54.3273 183.481C53.3983 183.236 52.4372 182.982 51.4566 183.03C50.3439 183.082 49.2504 183.545 48.4215 184.292C48.9601 183.713 49.6891 183.275 50.5019 183.053C51.4437 182.795 52.5049 182.798 53.6532 183.072C54.1596 183.191 54.6659 183.359 55.1594 183.52C55.6949 183.697 56.24 183.874 56.7915 183.996C56.0593 183.912 55.3304 183.742 54.6305 183.561C54.5466 183.539 54.4627 183.516 54.3789 183.494ZM40.4063 183.874C40.5385 183.825 40.6127 183.793 40.6933 183.758C40.7611 183.729 40.832 183.7 40.9417 183.658C41.9867 183.259 43.2253 183.188 44.6155 183.442C45.4347 183.59 45.9702 183.864 46.4669 184.26C45.7379 183.829 45.0864 183.693 44.3478 183.645C43.0608 183.558 42.0061 183.751 40.8868 183.957L40.8578 183.964C40.6901 183.993 40.5256 184.025 40.3579 184.057L40.2869 184.07C39.816 184.157 39.3419 184.247 38.8613 184.324C39.4193 184.215 39.945 184.044 40.4063 183.874ZM37.3647 183.758C38.0001 184.17 38.6839 183.816 39.2322 183.529L39.2903 183.5C41.7706 182.216 44.0188 182.277 46.3637 183.693C46.7314 183.916 47.241 184.263 47.5571 184.775C47.5474 184.778 47.5377 184.778 47.528 184.782C46.6959 183.932 46.0443 183.352 44.68 183.104C43.2317 182.84 41.9351 182.918 40.8288 183.336C40.7127 183.378 40.6417 183.41 40.5708 183.439C40.4933 183.471 40.4192 183.503 40.2934 183.549C39.3806 183.887 38.2001 184.234 37.0421 184.022C37.1195 183.903 37.2034 183.774 37.2905 183.642C37.2969 183.687 37.3227 183.729 37.3647 183.758ZM36.2777 184.675C36.6131 184.862 36.9421 184.865 37.2485 184.849C38.2968 184.794 39.3419 184.598 40.3514 184.408C40.5417 184.373 40.732 184.337 40.9191 184.302L40.9449 184.295C42.0416 184.093 43.0769 183.903 44.3219 183.986C45.1412 184.041 45.8153 184.199 46.6346 184.778C46.4894 184.698 46.3282 184.617 46.1443 184.534C46.1121 184.521 46.0798 184.511 46.0443 184.511C42.9769 184.485 40.3256 184.733 35.9551 185.174C36.068 185.007 36.1745 184.839 36.2777 184.675ZM47.8377 185.029H47.8409C47.9344 185.029 48.0312 185.042 48.1215 185.052C48.2344 185.068 48.3473 185.084 48.4602 185.1C48.4086 185.149 48.357 185.19 48.3054 185.223C47.9957 185.413 47.5958 185.284 47.3861 185.187C47.3474 185.171 47.3087 185.152 47.27 185.132C47.4603 185.075 47.6474 185.029 47.8377 185.029ZM50.5632 184.312C51.2147 184.26 51.8856 184.331 52.5339 184.398L52.75 184.421C53.1242 184.46 53.5951 184.498 54.1079 184.54C52.7597 184.514 51.2857 184.511 49.6859 184.53C49.6181 184.53 49.5472 184.534 49.4698 184.537C49.7988 184.418 50.1665 184.34 50.5632 184.312ZM58.6236 184.482C57.6269 184.437 54.4208 184.244 52.7855 184.077L52.5694 184.054C51.905 183.986 51.2212 183.916 50.5374 183.967C49.7729 184.025 49.1053 184.244 48.5957 184.601C49.3698 183.874 50.4148 183.423 51.476 183.371C52.4081 183.33 53.3403 183.574 54.2466 183.813L54.295 183.825C54.3789 183.848 54.4627 183.87 54.5466 183.89C55.7755 184.208 57.0915 184.485 58.3817 184.363C58.4333 184.357 58.4784 184.331 58.5075 184.289C58.5462 184.353 58.5849 184.418 58.6236 184.482ZM58.0785 184.041C58.0752 184.041 58.072 184.041 58.0688 184.041C58.0688 184.038 58.072 184.035 58.072 184.031C58.0752 184.035 58.0752 184.038 58.0785 184.041ZM57.5592 183.111C56.7593 181.797 56.14 180.358 55.4981 178.848C55.5046 178.848 55.5142 178.845 55.5207 178.845C56.1722 180.374 56.8431 181.781 57.5592 183.111ZM47.6442 184.302C47.3055 183.887 46.8733 183.597 46.5443 183.397C44.0865 181.913 41.7319 181.845 39.1322 183.194L39.0741 183.223C38.6129 183.465 38.1355 183.709 37.7066 183.545C38.7226 181.981 39.7192 180.377 40.6772 178.774C40.6772 178.771 40.6804 178.771 40.6804 178.768C40.7127 178.716 40.7417 178.662 40.774 178.61C41.3094 178.707 41.6384 178.674 42.0996 178.61C42.5092 178.555 42.9157 178.449 43.3059 178.346H43.3092C43.5253 178.291 43.7478 178.233 43.9639 178.185L44.08 178.159C44.7961 178.002 44.8703 177.985 45.3896 178.085C46.2508 178.256 46.9475 179.016 47.5603 179.701C47.499 181.372 47.5635 182.737 47.6442 184.302Z" fill="#252526"/>
<path d="M55.8076 169.792C55.0045 170.31 55.898 171.141 54.8852 170.169C54.84 170.127 54.7691 170.143 54.7465 170.201C54.6271 170.52 54.8078 171.067 53.6789 169.551C53.6724 169.544 53.666 169.538 53.6595 169.531C51.6952 168.16 50.8985 166.599 50.7437 167.461C50.7437 167.471 50.7437 167.481 50.7437 167.49C51.7694 174.489 53.8014 173.417 49.7406 174.618C49.7019 174.631 49.6761 174.669 49.6793 174.711C49.9212 176.55 49.7309 177.445 49.36 178.69C49.36 178.694 49.36 178.697 49.3568 178.697C49.1407 179.666 50.934 179.698 50.2599 180.558C50.2502 180.571 50.2373 180.58 50.2212 180.587C46.341 181.965 49.4535 176.987 47.6053 176.06C47.3247 175.729 47.2022 178.974 47.1344 179.164C47.1312 179.177 47.128 179.19 47.128 179.202C47.1796 179.544 47.4312 179.125 46.857 181.192C46.857 181.195 46.857 181.198 46.8538 181.205C46.7764 182.068 44.9766 182.212 45.1056 181.466C45.1088 181.45 45.1153 181.437 45.1282 181.424C46.8667 179.553 45.741 179.299 45.9442 177.171C45.9442 177.165 45.9442 177.161 45.9442 177.155C45.8217 175.993 45.7701 174.837 45.383 174.045C45.354 173.987 45.3379 173.923 45.3346 173.855C45.3282 172.822 43.838 173.089 43.6284 173.089C42.6188 173.301 43.8735 169.876 44.296 168.675C44.3251 168.598 44.2315 168.53 44.1638 168.582C42.6059 169.786 42.1737 170.13 40.4029 169.28C39.7804 169.013 40.2288 168.607 40.6287 168.314C40.6513 168.298 40.6771 168.295 40.7029 168.302C40.9287 168.376 41.0738 168.672 41.3931 168.427C42.9123 167.297 44.1638 166.17 45.2379 164.622C45.2508 164.606 45.2669 164.593 45.2862 164.586C45.683 164.487 45.8797 164.506 46.1926 164.174C46.2184 164.149 46.2539 164.129 46.2894 164.126C46.6571 164.078 46.3635 163.933 46.8377 163.788C46.9764 163.756 46.7474 163.566 46.77 163.489C46.728 163.237 46.8441 163.07 46.8151 162.79C46.8151 162.774 46.8151 162.758 46.8183 162.745C46.857 162.574 46.9441 162.362 46.9215 162.162C46.9151 162.117 46.9248 162.069 46.9538 162.033C47.5505 161.212 46.8957 161.39 48.8149 161.003C48.8246 161 48.8375 161 48.8471 161C49.2342 160.997 49.4051 161.444 49.7632 161.573C49.7922 161.583 49.818 161.602 49.8341 161.625C49.9793 161.821 49.9244 162.153 49.9535 162.417C50.1212 163.524 49.947 162.835 49.6954 163.959C49.6793 164.036 49.7212 164.116 49.7954 164.145C50.076 164.261 50.4147 164.264 50.6244 164.49C50.6308 164.499 50.6405 164.506 50.6502 164.512C50.9114 164.702 51.1211 164.789 51.2759 165.053C51.2791 165.06 51.2856 165.066 51.292 165.073C52.4371 166.096 53.7627 167.168 54.7336 168.24C54.7433 168.253 54.7594 168.26 54.7755 168.266C55.6432 168.498 55.0981 169.203 55.5109 169.306C55.6948 169.351 55.827 169.512 55.8399 169.702C55.8399 169.708 55.8399 169.715 55.8399 169.721C55.8464 169.747 55.8335 169.776 55.8076 169.792Z" fill="#252526"/>
<path d="M69.2373 184.238C68.8836 184.238 68.5969 183.949 68.5969 183.594V163.249C68.5969 162.893 68.8836 162.605 69.2373 162.605H77.8791C80.2765 162.605 82.1309 163.089 83.4423 164.057C84.7742 165.026 85.4401 166.396 85.4401 168.168C85.4401 169.342 85.1635 170.331 84.6103 171.134C84.0775 171.938 83.3399 172.546 82.3973 172.958C81.6768 173.28 80.9 173.476 80.0669 173.546C79.7686 173.571 79.5937 173.236 79.7667 172.991C79.8359 172.892 79.9482 172.834 80.0678 172.836C81.3593 172.855 82.4739 173.071 83.4116 173.483C84.4156 173.895 85.1943 174.524 85.7475 175.368C86.3007 176.192 86.5774 177.223 86.5774 178.459C86.5774 180.292 85.9012 181.714 84.5488 182.723C83.2169 183.733 81.1986 184.238 78.4939 184.238H69.2373ZM70.8714 181.709C70.8714 182.064 71.1581 182.353 71.5117 182.353H78.4631C80.3482 182.353 81.7928 182.033 82.7969 181.395C83.8009 180.735 84.3029 179.695 84.3029 178.273C84.3029 176.872 83.8009 175.852 82.7969 175.214C81.7928 174.554 80.3482 174.225 78.4631 174.225H71.2658C70.9122 174.225 70.6255 173.937 70.6255 173.581V172.983C70.6255 172.628 70.9122 172.34 71.2658 172.34H77.7255C79.4467 172.34 80.7785 172.01 81.7211 171.351C82.6842 170.691 83.1657 169.713 83.1657 168.415C83.1657 167.096 82.6842 166.118 81.7211 165.479C80.7785 164.82 79.4467 164.49 77.7255 164.49H71.5117C71.1581 164.49 70.8714 164.778 70.8714 165.134V181.709Z" fill="#252526"/>
<path d="M92.4092 184.238C92.0555 184.238 91.7688 183.949 91.7688 183.594V163.249C91.7688 162.893 92.0555 162.605 92.4092 162.605H93.403C93.7566 162.605 94.0433 162.893 94.0433 163.249V183.594C94.0433 183.949 93.7566 184.238 93.403 184.238H92.4092Z" fill="#252526"/>
<path d="M101.684 184.238C101.33 184.238 101.044 183.949 101.044 183.594V163.249C101.044 162.893 101.33 162.605 101.684 162.605H102.678C103.031 162.605 103.318 162.893 103.318 163.249V181.616C103.318 181.972 103.605 182.26 103.958 182.26H114.726C115.08 182.26 115.366 182.548 115.366 182.904V183.594C115.366 183.949 115.08 184.238 114.726 184.238H101.684Z" fill="#252526"/>
<path d="M119.783 184.238C119.43 184.238 119.143 183.949 119.143 183.594V163.249C119.143 162.893 119.43 162.605 119.783 162.605H128.425C130.823 162.605 132.677 163.089 133.988 164.057C135.32 165.026 135.986 166.396 135.986 168.168C135.986 169.342 135.71 170.331 135.156 171.134C134.624 171.938 133.886 172.546 132.943 172.958C132.223 173.28 131.446 173.476 130.613 173.546C130.315 173.571 130.14 173.236 130.313 172.991C130.382 172.892 130.494 172.834 130.614 172.836C131.905 172.855 133.02 173.071 133.958 173.483C134.962 173.895 135.74 174.524 136.293 175.368C136.847 176.192 137.123 177.223 137.123 178.459C137.123 180.292 136.447 181.714 135.095 182.723C133.763 183.733 131.745 184.238 129.04 184.238H119.783ZM121.417 181.709C121.417 182.064 121.704 182.353 122.058 182.353H129.009C130.894 182.353 132.339 182.033 133.343 181.395C134.347 180.735 134.849 179.695 134.849 178.273C134.849 176.872 134.347 175.852 133.343 175.214C132.339 174.554 130.894 174.225 129.009 174.225H121.812C121.458 174.225 121.171 173.937 121.171 173.581V172.983C121.171 172.628 121.458 172.34 121.812 172.34H128.271C129.993 172.34 131.325 172.01 132.267 171.351C133.23 170.691 133.712 169.713 133.712 168.415C133.712 167.096 133.23 166.118 132.267 165.479C131.325 164.82 129.993 164.49 128.271 164.49H122.058C121.704 164.49 121.417 164.778 121.417 165.134V181.709Z" fill="#252526"/>
<path d="M151.72 184.423C150.101 184.423 148.595 184.155 147.202 183.62C145.829 183.063 144.63 182.291 143.606 181.302C142.602 180.292 141.813 179.128 141.239 177.81C140.686 176.471 140.409 175.008 140.409 173.421C140.409 171.835 140.686 170.382 141.239 169.064C141.813 167.725 142.602 166.561 143.606 165.572C144.63 164.562 145.829 163.79 147.202 163.254C148.575 162.698 150.081 162.419 151.72 162.419C153.339 162.419 154.835 162.698 156.207 163.254C157.58 163.79 158.769 164.552 159.773 165.541C160.797 166.53 161.586 167.694 162.139 169.033C162.713 170.372 163 171.835 163 173.421C163 175.008 162.713 176.471 162.139 177.81C161.586 179.149 160.797 180.313 159.773 181.302C158.769 182.291 157.58 183.063 156.207 183.62C154.835 184.155 153.339 184.423 151.72 184.423ZM151.72 182.383C153.011 182.383 154.199 182.167 155.285 181.735C156.392 181.281 157.345 180.653 158.144 179.849C158.963 179.025 159.599 178.078 160.049 177.006C160.5 175.914 160.726 174.719 160.726 173.421C160.726 172.123 160.5 170.939 160.049 169.867C159.599 168.775 158.963 167.828 158.144 167.024C157.345 166.2 156.392 165.572 155.285 165.139C154.199 164.686 153.011 164.459 151.72 164.459C150.429 164.459 149.23 164.686 148.124 165.139C147.017 165.572 146.054 166.2 145.235 167.024C144.436 167.828 143.8 168.775 143.329 169.867C142.878 170.939 142.653 172.123 142.653 173.421C142.653 174.699 142.878 175.883 143.329 176.975C143.8 178.067 144.436 179.025 145.235 179.849C146.054 180.653 147.017 181.281 148.124 181.735C149.23 182.167 150.429 182.383 151.72 182.383Z" fill="#252526"/>
</g>
<defs>
<linearGradient id="paint0_linear_257_38009" x1="28" y1="-105.5" x2="375.5" y2="381.5" gradientUnits="userSpaceOnUse">
<stop stop-color="#FFF2C8"/>
<stop offset="0.430195" stop-color="#E08AB1"/>
<stop offset="1" stop-color="#6A1B4A"/>
</linearGradient>
<clipPath id="clip0_257_38009">
<rect width="420" height="271.765" rx="10" fill="white"/>
</clipPath>
</defs>
</svg>
