<svg height="32" viewBox="0 0 32 32" width="32" xmlns="http://www.w3.org/2000/svg"><path d="m18.303 9a2.6616 2.6616 0 0 0 -1.9079.8058l-.3932.4054-.397-.4054a2.6615 2.6615 0 0 0 -3.8157 0 2.7992 2.7992 0 0 0 0 3.8964l4.2127 4.2978 4.2089-4.2978a2.7992 2.7992 0 0 0 0-3.8964 2.6616 2.6616 0 0 0 -1.9078-.8058z" fill="none"/><path d="m16 2a11.0134 11.0134 0 0 0 -11 11 10.8885 10.8885 0 0 0 2.2163 6.6s.3.3945.3482.4517l8.4355 9.9483 8.439-9.9526c.0444-.0533.3447-.4478.3447-.4478l.0015-.0024a10.8846 10.8846 0 0 0 2.2148-6.5972 11.0134 11.0134 0 0 0 -11-11zm4.2109 11.7021-4.2089 4.2979-4.2129-4.2979a2.7992 2.7992 0 0 1 0-3.8964 2.6619 2.6619 0 0 1 3.8159 0l.397.4057.393-.4057a2.6619 2.6619 0 0 1 3.8159 0 2.7992 2.7992 0 0 1 0 3.8964z"/><path d="m0 0h32v32h-32z" fill="none"/></svg>