<svg width="176" height="35" viewBox="0 0 176 35" fill="none" xmlns="http://www.w3.org/2000/svg">
<path d="M33.7668 32.8591C32.0807 30.253 30.6557 27.4614 29.5316 24.5726C29.4962 24.4842 29.4298 24.418 29.3458 24.3782C29.2617 24.3429 29.1643 24.3385 29.0802 24.3738C29.067 24.3782 29.0581 24.3827 29.0448 24.3915C29.0183 24.3429 28.9961 24.2987 28.974 24.2501C28.943 24.1883 28.8855 24.1485 28.8191 24.1309H28.8147C28.7483 24.1176 28.6819 24.1309 28.6288 24.1662C28.6067 24.1839 28.5846 24.1927 28.558 24.2016C28.5448 24.1706 28.5315 24.1397 28.5182 24.1044C28.4961 24.047 28.4474 23.9984 28.3899 23.9763C28.3323 23.9542 28.2659 23.9542 28.2084 23.9763C28.1243 24.0116 28.0314 24.0337 27.9429 24.0337L27.8455 23.8084C27.8013 23.698 27.6818 23.6406 27.5667 23.6715C26.925 23.8393 26.2258 23.6538 25.5531 23.4771C25.4248 23.4418 25.292 23.4065 25.1637 23.3755C21.6145 22.4965 19.3664 23.0354 17.4988 25.2307C16.6403 24.2722 15.6623 23.2519 14.3744 22.9824C13.5734 22.8146 13.3831 22.8587 12.3166 23.0929L12.2104 23.1149C11.9006 23.1812 11.5908 23.2651 11.2855 23.3446C10.7633 23.4816 10.2234 23.6229 9.68789 23.6936C9.0639 23.7775 8.63905 23.8217 7.8646 23.6671C7.86017 23.6671 7.86017 23.6671 7.85575 23.6671C7.85132 23.6671 7.84247 23.6671 7.83805 23.6671C7.8292 23.6671 7.82034 23.6671 7.80707 23.6671C7.80264 23.6671 7.79822 23.6671 7.79379 23.6671C7.78494 23.6671 7.77166 23.6715 7.76281 23.6715C7.75839 23.6715 7.75396 23.6759 7.74954 23.6759C7.74069 23.6803 7.72741 23.6803 7.71856 23.6892C7.71413 23.6936 7.70971 23.6936 7.70528 23.698C7.70086 23.7024 7.69201 23.7024 7.68758 23.7068L7.68316 23.7112C7.67873 23.7157 7.6743 23.7201 7.66545 23.7245C7.66103 23.7289 7.65218 23.7333 7.64775 23.7422C7.64333 23.7466 7.6389 23.751 7.63448 23.7598C7.63005 23.7687 7.62563 23.7731 7.61677 23.7819L7.61235 23.7863C7.54597 23.8968 7.47958 24.0028 7.41763 24.1132C7.38223 24.1309 7.32912 24.1353 7.24504 24.1353C7.18308 24.1397 7.1167 24.1397 7.04589 24.153C6.97066 24.1662 6.90428 24.2192 6.8733 24.2899C6.83789 24.3694 6.79364 24.4577 6.74053 24.5593C6.66088 24.577 6.52369 24.6035 6.4042 24.6168C6.32897 24.6256 6.25816 24.6698 6.22276 24.7316C6.1608 24.842 6.09442 24.948 6.02804 25.0585C5.95723 25.0231 5.87757 25.0143 5.79791 25.032C5.70498 25.0541 5.62975 25.1071 5.58107 25.1866C4.79333 26.419 4.00118 27.6646 3.16477 28.9853C2.72222 29.6832 2.20444 30.3855 1.66011 31.1276C1.11578 31.8697 0.549323 32.6383 0.0536722 33.4201C-0.0171351 33.5305 -0.0171354 33.6763 0.0492464 33.7911C0.151032 33.9546 0.677661 33.9413 0.682087 33.9413C6.78479 33.3141 10.7456 32.9298 15.0914 32.9607C15.4543 33.1242 15.7508 33.2964 16.0163 33.451C16.2553 33.588 16.481 33.7205 16.7244 33.8265C16.9722 33.9369 17.3483 34.065 17.7643 34.065C18.0874 34.065 18.3795 33.9855 18.6362 33.8309C18.8309 33.7116 18.9813 33.5615 19.1274 33.4157C19.2734 33.2699 19.4106 33.133 19.5611 33.0667C19.7337 32.9872 19.9682 32.9828 20.1718 32.9828C25.7257 32.9077 30.191 33.0446 33.4437 33.3936C33.5765 33.4069 33.7048 33.345 33.7756 33.2302C33.8376 33.1153 33.8376 32.9696 33.7668 32.8591ZM25.0398 23.8349C25.1637 23.8658 25.2788 23.8968 25.4248 23.9365C26.0931 24.1132 26.7834 24.2987 27.4782 24.175L27.6154 24.4931C28.6421 26.9004 29.6113 29.1841 30.9699 31.2469C29.9211 31.1409 28.8899 30.8007 27.8057 30.4474C27.1242 30.2221 26.4161 29.9924 25.6992 29.8201C24.0441 29.4314 22.5129 29.4226 21.141 29.7981C19.8133 30.1647 18.6362 30.92 17.8174 31.9227C17.7068 29.723 17.6227 27.9517 17.7112 25.7034C19.477 23.5301 21.6056 22.9868 25.0398 23.8349ZM2.2664 31.9271C2.29295 31.9492 2.32393 31.9669 2.35491 31.9713C3.06298 32.1524 3.77991 32.1789 4.4747 32.117C4.0056 32.1789 3.53208 32.2231 3.06298 32.2496C2.73992 32.2672 2.43899 32.2672 2.13806 32.1436C2.18232 32.0729 2.22215 31.9978 2.2664 31.9271ZM26.5887 30.8626L26.5179 30.8449C25.2434 30.5092 23.9246 30.1603 22.5792 30.2265C21.0525 30.2972 19.5522 30.9333 18.4149 31.958C19.1539 31.1629 20.1541 30.5622 21.2693 30.2574C22.5615 29.9041 24.0175 29.9085 25.593 30.2839C26.2878 30.4474 26.9826 30.6771 27.6597 30.8979C28.3943 31.1409 29.1422 31.3838 29.8989 31.5517C28.8944 31.4368 27.8942 31.2027 26.9339 30.9553C26.8188 30.9244 26.7038 30.8935 26.5887 30.8626ZM7.41763 31.3838C7.59907 31.3175 7.70086 31.2734 7.81149 31.2248C7.90443 31.185 8.00179 31.1453 8.15225 31.0879C9.5861 30.5401 11.2855 30.443 13.1928 30.7919C14.3169 30.9951 15.0515 31.3706 15.7331 31.9139C14.7329 31.322 13.839 31.1364 12.8255 31.0702C11.0598 30.9509 9.61265 31.216 8.07702 31.4987L8.03719 31.5075C7.80707 31.5472 7.58137 31.5914 7.35125 31.6356L7.25389 31.6532C6.60777 31.7725 5.95723 31.8962 5.29784 32.0022C6.06344 31.852 6.78479 31.6179 7.41763 31.3838ZM3.24442 31.2248C4.11624 31.7902 5.05444 31.3043 5.80676 30.9112L5.88642 30.8714C9.2896 29.109 12.3741 29.1929 15.5914 31.1364C16.0959 31.4412 16.7952 31.9183 17.2289 32.6206C17.2156 32.625 17.2023 32.625 17.189 32.6294C16.0473 31.4633 15.1533 30.6682 13.2814 30.3281C11.2943 29.9659 9.51529 30.0719 7.99736 30.6461C7.83805 30.7036 7.74069 30.7477 7.64333 30.7875C7.53712 30.8317 7.43533 30.8758 7.26274 30.9377C6.01033 31.4015 4.39062 31.8785 2.80188 31.587C2.90809 31.4236 3.02315 31.2469 3.14264 31.0658C3.15149 31.1276 3.18689 31.185 3.24442 31.2248ZM1.75305 32.4837C2.21329 32.7399 2.66469 32.7443 3.08511 32.7222C4.52338 32.6471 5.95723 32.3777 7.3424 32.117C7.6035 32.0685 7.8646 32.0199 8.12128 31.9713L8.15668 31.9624C9.66133 31.6842 11.0819 31.4236 12.7901 31.5384C13.9142 31.6135 14.8391 31.8299 15.9632 32.625C15.764 32.5146 15.5428 32.4042 15.2905 32.2893C15.2463 32.2716 15.202 32.2584 15.1533 32.2584C10.9447 32.2231 7.30699 32.5632 1.3105 33.1683C1.46539 32.9386 1.61143 32.7089 1.75305 32.4837ZM17.6139 32.9696H17.6183C17.7466 32.9696 17.8794 32.9872 18.0033 33.0005C18.1582 33.0226 18.3131 33.0446 18.468 33.0667C18.3972 33.133 18.3264 33.1904 18.2556 33.2346C17.8307 33.4952 17.282 33.3185 16.9943 33.186C16.9412 33.1639 16.8881 33.1374 16.835 33.1109C17.0961 33.0314 17.3528 32.9696 17.6139 32.9696ZM21.3534 31.9845C22.2473 31.9139 23.1678 32.011 24.0573 32.1038L24.3538 32.1347C24.8672 32.1877 25.5133 32.2407 26.217 32.2982C24.3671 32.2628 22.3447 32.2584 20.1497 32.2849C20.0567 32.2849 19.9594 32.2893 19.8532 32.2937C20.3046 32.1303 20.8091 32.0243 21.3534 31.9845ZM32.4126 32.2186C31.0451 32.1568 26.6462 31.8918 24.4025 31.6621L24.106 31.6312C23.1944 31.5384 22.2562 31.4412 21.318 31.5119C20.2691 31.5914 19.3531 31.8918 18.6539 32.3821C19.716 31.3838 21.1498 30.7654 22.6058 30.6947C23.8847 30.6373 25.1637 30.973 26.4073 31.2999L26.4736 31.3175C26.5887 31.3485 26.7038 31.3794 26.8188 31.4059C28.5049 31.8432 30.3105 32.2231 32.0807 32.0552C32.1515 32.0464 32.2135 32.011 32.2533 31.9536C32.3064 32.042 32.3595 32.1303 32.4126 32.2186ZM31.6647 31.6135C31.6603 31.6135 31.6558 31.6135 31.6514 31.6135C31.6514 31.6091 31.6558 31.6047 31.6558 31.6002C31.6603 31.6047 31.6603 31.6091 31.6647 31.6135ZM30.9522 30.3369C29.8547 28.5348 29.005 26.5603 28.1243 24.4887C28.1332 24.4887 28.1465 24.4842 28.1553 24.4842C29.0493 26.5824 29.9697 28.5127 30.9522 30.3369ZM17.3484 31.9713C16.8837 31.4015 16.2907 31.0039 15.8393 30.7301C12.4671 28.6938 9.23649 28.601 5.66957 30.4518L5.58992 30.4915C4.95708 30.8228 4.30211 31.1585 3.71352 30.9333C5.10754 28.7865 6.47501 26.5868 7.78937 24.3871C7.78937 24.3827 7.79379 24.3827 7.79379 24.3782C7.83805 24.3076 7.87788 24.2325 7.92213 24.1618C8.65676 24.2943 9.10815 24.2501 9.74099 24.1618C10.303 24.0867 10.8606 23.9409 11.3961 23.7996H11.4005C11.697 23.7245 12.0024 23.645 12.2989 23.5787L12.4582 23.5434C13.4407 23.327 13.5425 23.3049 14.255 23.4418C15.4366 23.6759 16.3925 24.7184 17.2333 25.6592C17.1492 27.9517 17.2377 29.8246 17.3484 31.9713Z" fill="#252526"/>
<path d="M28.5493 12.0632C27.4474 12.7744 28.6732 13.914 27.2836 12.58C27.2217 12.5226 27.1243 12.5447 27.0933 12.6242C26.9296 13.0615 27.1774 13.8124 25.6285 11.7319C25.6197 11.7231 25.6108 11.7143 25.602 11.7054C22.9069 9.82372 21.8138 7.68141 21.6013 8.86521C21.6013 8.87846 21.6013 8.89171 21.6013 8.90496C23.0086 18.5078 25.7967 17.0369 20.225 18.6845C20.1719 18.7022 20.1365 18.7552 20.1409 18.8126C20.4729 21.3348 20.2118 22.5627 19.7028 24.2722C19.7028 24.2766 19.7028 24.281 19.6984 24.281C19.4019 25.6106 21.8625 25.6547 20.9375 26.8341C20.9243 26.8518 20.9066 26.865 20.8844 26.8738C15.5606 28.7644 19.8312 21.9355 17.2954 20.6634C16.9104 20.2084 16.7422 24.6609 16.6493 24.9215C16.6448 24.9391 16.6404 24.9568 16.6404 24.9745C16.7112 25.4427 17.0564 24.8685 16.2687 27.7043C16.2687 27.7087 16.2687 27.7131 16.2643 27.7219C16.158 28.9057 13.6886 29.1045 13.8657 28.0797C13.8701 28.0576 13.8789 28.04 13.8966 28.0223C16.282 25.4559 14.7375 25.107 15.0163 22.1873C15.0163 22.1784 15.0163 22.174 15.0163 22.1652C14.8481 20.5706 14.7773 18.9849 14.2462 17.8982C14.2064 17.8187 14.1843 17.7304 14.1799 17.6376C14.171 16.2197 12.1265 16.5864 11.8388 16.5864C10.4536 16.8779 12.1751 12.1781 12.7549 10.5305C12.7947 10.4245 12.6664 10.3317 12.5734 10.4024C10.4359 12.0544 9.84292 12.527 7.41334 11.3609C6.55923 10.9943 7.17437 10.4377 7.72312 10.0357C7.7541 10.0137 7.7895 10.0092 7.82491 10.0181C8.13469 10.1197 8.33384 10.526 8.77196 10.1903C10.8563 8.63993 12.5734 7.09394 14.0471 4.9693C14.0648 4.94721 14.0869 4.92954 14.1135 4.92071C14.6578 4.78378 14.9278 4.81028 15.357 4.35532C15.3924 4.31998 15.4411 4.29348 15.4898 4.28906C15.9943 4.2228 15.5916 4.02403 16.2421 3.82526C16.4324 3.78109 16.1182 3.52048 16.1492 3.41447C16.0917 3.06993 16.251 2.84024 16.2111 2.45595C16.2111 2.43386 16.2111 2.41178 16.2156 2.39411C16.2687 2.16 16.3882 1.86847 16.3572 1.59461C16.3483 1.53277 16.3616 1.46651 16.4014 1.41792C17.2201 0.291555 16.3218 0.534497 18.9549 0.00444111C18.9682 2.3981e-05 18.9859 2.37115e-05 18.9992 2.37115e-05C19.5302 -0.00439342 19.7648 0.609588 20.256 0.786273C20.2958 0.799525 20.3312 0.826028 20.3534 0.856947C20.5525 1.12639 20.4773 1.58136 20.5171 1.94356C20.7472 3.46305 20.5083 2.51779 20.1631 4.05937C20.1409 4.16538 20.1985 4.27581 20.3003 4.31556C20.6853 4.47458 21.15 4.47899 21.4376 4.78819C21.4465 4.80145 21.4597 4.81028 21.473 4.81911C21.8315 5.07972 22.1191 5.19899 22.3315 5.56119C22.336 5.57003 22.3448 5.57886 22.3537 5.58769C23.9247 6.99234 25.7436 8.46325 27.0756 9.93415C27.0889 9.95182 27.111 9.96065 27.1332 9.96949C28.3236 10.2875 27.5757 11.2549 28.1422 11.3962C28.3944 11.4581 28.5759 11.6789 28.5936 11.9395C28.5936 11.9484 28.5936 11.9572 28.5936 11.966C28.6024 12.0014 28.5847 12.0411 28.5493 12.0632Z" fill="#252526"/>
<path d="M46.9752 31.8835C46.49 31.8835 46.0967 31.488 46.0967 31.0001V3.08554C46.0967 2.59766 46.49 2.20216 46.9752 2.20216H58.8323C62.1216 2.20216 64.6659 2.86646 66.4652 4.19505C68.2926 5.52364 69.2063 7.40346 69.2063 9.83449C69.2063 11.4458 68.8268 12.8026 68.0677 13.9051C67.3368 15.0075 66.3247 15.8414 65.0314 16.4068C64.0429 16.8485 62.977 17.1177 61.834 17.2143C61.4247 17.2489 61.1848 16.7889 61.4221 16.4519C61.517 16.3172 61.6712 16.2367 61.8353 16.2391C63.6073 16.2655 65.1365 16.5617 66.4231 17.1276C67.8006 17.693 68.869 18.5551 69.628 19.7141C70.3871 20.8448 70.7667 22.2582 70.7667 23.9543C70.7667 26.4701 69.8389 28.4206 67.9834 29.8058C66.156 31.1909 63.3868 31.8835 59.6757 31.8835H46.9752ZM49.2173 28.4136C49.2173 28.9014 49.6107 29.2969 50.0959 29.2969H59.6335C62.22 29.2969 64.2021 28.8588 65.5796 27.9825C66.9572 27.0779 67.646 25.6504 67.646 23.6999C67.646 21.7777 66.9572 20.3784 65.5796 19.5021C64.2021 18.5975 62.22 18.1453 59.6335 18.1453H49.7585C49.2733 18.1453 48.88 17.7498 48.88 17.2619V16.4421C48.88 15.9542 49.2733 15.5587 49.7585 15.5587H58.6214C60.983 15.5587 62.8104 15.1065 64.1037 14.2019C65.425 13.2973 66.0857 11.9546 66.0857 10.1737C66.0857 8.36457 65.425 7.02184 64.1037 6.14554C62.8104 5.24096 60.983 4.78868 58.6214 4.78868H50.0959C49.6107 4.78868 49.2173 5.18417 49.2173 5.67205V28.4136Z" fill="#252526"/>
<path d="M78.7682 31.8835C78.2829 31.8835 77.8896 31.488 77.8896 31.0001V3.08554C77.8896 2.59766 78.2829 2.20216 78.7682 2.20216H80.1317C80.6169 2.20216 81.0102 2.59766 81.0102 3.08554V31.0001C81.0102 31.488 80.6169 31.8835 80.1317 31.8835H78.7682Z" fill="#252526"/>
<path d="M91.4936 31.8835C91.0083 31.8835 90.615 31.488 90.615 31.0001V3.08554C90.615 2.59766 91.0083 2.20216 91.4936 2.20216H92.8571C93.3423 2.20216 93.7356 2.59766 93.7356 3.08554V28.2864C93.7356 28.7742 94.129 29.1697 94.6142 29.1697H109.388C109.873 29.1697 110.267 29.5652 110.267 30.0531V31.0001C110.267 31.488 109.873 31.8835 109.388 31.8835H91.4936Z" fill="#252526"/>
<path d="M116.327 31.8835C115.841 31.8835 115.448 31.488 115.448 31.0001V3.08554C115.448 2.59766 115.841 2.20216 116.327 2.20216H128.184C131.473 2.20216 134.017 2.86646 135.817 4.19505C137.644 5.52364 138.558 7.40346 138.558 9.83449C138.558 11.4458 138.178 12.8026 137.419 13.9051C136.688 15.0075 135.676 15.8414 134.383 16.4068C133.394 16.8485 132.328 17.1177 131.185 17.2143C130.776 17.2489 130.536 16.7889 130.774 16.4519C130.868 16.3172 131.023 16.2367 131.187 16.2391C132.959 16.2655 134.488 16.5617 135.774 17.1276C137.152 17.693 138.22 18.5551 138.979 19.7141C139.739 20.8448 140.118 22.2582 140.118 23.9543C140.118 26.4701 139.19 28.4206 137.335 29.8058C135.507 31.1909 132.738 31.8835 129.027 31.8835H116.327ZM118.569 28.4136C118.569 28.9014 118.962 29.2969 119.447 29.2969H128.985C131.571 29.2969 133.553 28.8588 134.931 27.9825C136.309 27.0779 136.997 25.6504 136.997 23.6999C136.997 21.7777 136.309 20.3784 134.931 19.5021C133.553 18.5975 131.571 18.1453 128.985 18.1453H119.11C118.625 18.1453 118.231 17.7498 118.231 17.2619V16.4421C118.231 15.9542 118.625 15.5587 119.11 15.5587H127.973C130.334 15.5587 132.162 15.1065 133.455 14.2019C134.776 13.2973 135.437 11.9546 135.437 10.1737C135.437 8.36457 134.776 7.02184 133.455 6.14554C132.162 5.24096 130.334 4.78868 127.973 4.78868H119.447C118.962 4.78868 118.569 5.18417 118.569 5.67205V28.4136Z" fill="#252526"/>
<path d="M160.145 32.1379C157.924 32.1379 155.858 31.7704 153.946 31.0354C152.063 30.2722 150.418 29.2121 149.012 27.8553C147.635 26.4701 146.552 24.873 145.765 23.0639C145.006 21.2265 144.626 19.2194 144.626 17.0428C144.626 14.8662 145.006 12.8733 145.765 11.0641C146.552 9.22674 147.635 7.6296 149.012 6.27274C150.418 4.88761 152.063 3.82757 153.946 3.0926C155.83 2.32937 157.896 1.94775 160.145 1.94775C162.366 1.94775 164.419 2.32937 166.302 3.0926C168.186 3.82757 169.816 4.87348 171.194 6.23034C172.6 7.5872 173.682 9.18433 174.441 11.0217C175.228 12.8592 175.622 14.8662 175.622 17.0428C175.622 19.2194 175.228 21.2265 174.441 23.0639C173.682 24.9013 172.6 26.4984 171.194 27.8553C169.816 29.2121 168.186 30.2722 166.302 31.0354C164.419 31.7704 162.366 32.1379 160.145 32.1379ZM160.145 29.3393C161.916 29.3393 163.547 29.0425 165.037 28.4489C166.555 27.827 167.863 26.9648 168.959 25.8624C170.084 24.7317 170.955 23.4313 171.574 21.9614C172.192 20.4632 172.501 18.8237 172.501 17.0428C172.501 15.2619 172.192 13.6365 171.574 12.1666C170.955 10.6684 170.084 9.36808 168.959 8.26563C167.863 7.13491 166.555 6.27274 165.037 5.67912C163.547 5.05722 161.916 4.74628 160.145 4.74628C158.374 4.74628 156.729 5.05722 155.211 5.67912C153.693 6.27274 152.372 7.13491 151.247 8.26563C150.151 9.36808 149.279 10.6684 148.633 12.1666C148.014 13.6365 147.705 15.2619 147.705 17.0428C147.705 18.7954 148.014 20.4208 148.633 21.919C149.279 23.4172 150.151 24.7317 151.247 25.8624C152.372 26.9648 153.693 27.827 155.211 28.4489C156.729 29.0425 158.374 29.3393 160.145 29.3393Z" fill="#252526"/>
</svg>
