<svg width="60" height="60" viewBox="0 0 60 60" fill="none" xmlns="http://www.w3.org/2000/svg">
<g clip-path="url(#clip0_299_27824)">
<path fill-rule="evenodd" clip-rule="evenodd" d="M15 48C15 48 12 48 12 45C12 42 15 33 30 33C45 33 48 42 48 45C48 48 45 48 45 48H15ZM30 30C32.3869 30 34.6761 29.0518 36.364 27.364C38.0518 25.6761 39 23.3869 39 21C39 18.6131 38.0518 16.3239 36.364 14.636C34.6761 12.9482 32.3869 12 30 12C27.6131 12 25.3239 12.9482 23.636 14.636C21.9482 16.3239 21 18.6131 21 21C21 23.3869 21.9482 25.6761 23.636 27.364C25.3239 29.0518 27.6131 30 30 30Z" fill="#453159"/>
<circle cx="30" cy="30" r="28.5" stroke="#453159" stroke-width="3"/>
</g>
<defs>
<clipPath id="clip0_299_27824">
<rect width="60" height="60" fill="white"/>
</clipPath>
</defs>
</svg>
