<svg xmlns="http://www.w3.org/2000/svg" width="50" height="26" viewBox="0 0 50 26" fill="none">
    <rect x="4.25391" y="5.07568" width="36.6595" height="15.7112" rx="2.32177" fill="white"/>
    <path opacity="0.4" fill-rule="evenodd" clip-rule="evenodd" d="M10.5376 3.33016H34.6281C36.3678 3.33016 37.5677 3.33152 38.4989 3.40761C39.4098 3.48203 39.909 3.61915 40.2754 3.80583C41.0965 4.22425 41.7642 4.89189 42.1826 5.71307C42.3693 6.07945 42.5064 6.57862 42.5808 7.48951C42.6569 8.42078 42.6583 9.62059 42.6583 11.3603V14.5026C42.6583 16.2423 42.6569 17.4421 42.5808 18.3734C42.5064 19.2843 42.3693 19.7835 42.1826 20.1498C41.7642 20.971 41.0965 21.6387 40.2754 22.0571C39.909 22.2438 39.4098 22.3809 38.4989 22.4553C37.5677 22.5314 36.3678 22.5327 34.6281 22.5327H10.5376C8.79785 22.5327 7.59803 22.5314 6.66676 22.4553C5.75587 22.3809 5.2567 22.2438 4.89032 22.0571C4.06913 21.6387 3.40149 20.971 2.98308 20.1498C2.7964 19.7835 2.65928 19.2843 2.58485 18.3734C2.50877 17.4421 2.50741 16.2423 2.50741 14.5026V11.3603C2.50741 9.62059 2.50877 8.42078 2.58485 7.48951C2.65928 6.57862 2.7964 6.07945 2.98308 5.71307C3.40149 4.89189 4.06913 4.22425 4.89032 3.80583C5.2567 3.61915 5.75587 3.48203 6.66676 3.40761C7.59802 3.33152 8.79784 3.33016 10.5376 3.33016ZM0.761719 11.3603C0.761719 7.93846 0.761719 6.22753 1.42766 4.92054C2.01344 3.77089 2.94814 2.83619 4.09779 2.25041C5.40477 1.58447 7.11571 1.58447 10.5376 1.58447H34.6281C38.05 1.58447 39.7609 1.58447 41.0679 2.25041C42.2175 2.83619 43.1522 3.77089 43.738 4.92054C44.404 6.22753 44.404 7.93846 44.404 11.3603V14.5026C44.404 17.9244 44.404 19.6354 43.738 20.9424C43.1522 22.092 42.2175 23.0267 41.0679 23.6125C39.7609 24.2784 38.05 24.2784 34.6281 24.2784H10.5376C7.11571 24.2784 5.40477 24.2784 4.09779 23.6125C2.94814 23.0267 2.01344 22.092 1.42766 20.9424C0.761719 19.6354 0.761719 17.9244 0.761719 14.5026V11.3603ZM46.1497 16.4226C47.5958 16.0735 48.7682 14.8595 48.7682 12.9313C48.7682 11.003 47.5958 9.78901 46.1497 9.43987L46.1497 12.9313L46.1497 16.4226Z" fill="white"/>
</svg>