<svg width="223" height="285" viewBox="0 0 223 285" fill="none" xmlns="http://www.w3.org/2000/svg">
<path d="M32.522 284.669C31.8858 284.669 31.37 284.153 31.37 283.517V247.136C31.37 246.5 31.8858 245.985 32.522 245.985H48.0704C52.3838 245.985 55.7202 246.85 58.0796 248.582C60.4759 250.314 61.6741 252.764 61.6741 255.932C61.6741 258.032 61.1764 259.8 60.181 261.237C59.2225 262.674 57.8953 263.761 56.1994 264.498C54.9031 265.073 53.5055 265.424 52.0066 265.55C51.4699 265.595 51.1552 264.996 51.4665 264.556C51.5909 264.381 51.7931 264.276 52.0083 264.279C54.3319 264.314 56.3373 264.7 58.0243 265.437C59.8308 266.174 61.2317 267.298 62.2271 268.808C63.2225 270.282 63.7202 272.124 63.7202 274.334C63.7202 277.613 62.5036 280.155 60.0704 281.961C57.6741 283.766 54.0427 284.669 49.1764 284.669H32.522ZM35.4621 280.146C35.4621 280.782 35.9779 281.297 36.6142 281.297H49.1211C52.5128 281.297 55.1119 280.726 56.9183 279.584C58.7248 278.405 59.628 276.545 59.628 274.003C59.628 271.498 58.7248 269.674 56.9183 268.532C55.1119 267.353 52.5128 266.763 49.1211 266.763H36.1718C35.5355 266.763 35.0197 266.248 35.0197 265.612V264.544C35.0197 263.908 35.5355 263.392 36.1718 263.392H47.7939C50.8907 263.392 53.287 262.803 54.9828 261.624C56.7156 260.445 57.5819 258.695 57.5819 256.374C57.5819 254.016 56.7156 252.266 54.9828 251.124C53.287 249.945 50.8907 249.356 47.7939 249.356H36.6142C35.9779 249.356 35.4621 249.871 35.4621 250.507V280.146Z" fill="white"/>
<path d="M74.2127 284.669C73.5764 284.669 73.0606 284.153 73.0606 283.517V247.136C73.0606 246.5 73.5764 245.985 74.2127 245.985H76.0007C76.6369 245.985 77.1527 246.5 77.1527 247.136V283.517C77.1527 284.153 76.6369 284.669 76.0007 284.669H74.2127Z" fill="white"/>
<path d="M90.8997 284.669C90.2634 284.669 89.7476 284.153 89.7476 283.517V247.136C89.7476 246.5 90.2634 245.985 90.8997 245.985H92.6877C93.324 245.985 93.8398 246.5 93.8398 247.136V279.98C93.8398 280.616 94.3556 281.132 94.9919 281.132H114.365C115.001 281.132 115.517 281.647 115.517 282.283V283.517C115.517 284.153 115.001 284.669 114.365 284.669H90.8997Z" fill="white"/>
<path d="M123.464 284.669C122.827 284.669 122.312 284.153 122.312 283.517V247.136C122.312 246.5 122.827 245.985 123.464 245.985H139.012C143.325 245.985 146.662 246.85 149.021 248.582C151.418 250.314 152.616 252.764 152.616 255.932C152.616 258.032 152.118 259.8 151.123 261.237C150.164 262.674 148.837 263.761 147.141 264.498C145.845 265.073 144.447 265.424 142.948 265.55C142.412 265.595 142.097 264.996 142.408 264.556C142.533 264.381 142.735 264.276 142.95 264.279C145.274 264.314 147.279 264.7 148.966 265.437C150.772 266.174 152.173 267.298 153.169 268.808C154.164 270.282 154.662 272.124 154.662 274.334C154.662 277.613 153.445 280.155 151.012 281.961C148.616 283.766 144.984 284.669 140.118 284.669H123.464ZM126.404 280.146C126.404 280.782 126.92 281.297 127.556 281.297H140.063C143.455 281.297 146.054 280.726 147.86 279.584C149.666 278.405 150.57 276.545 150.57 274.003C150.57 271.498 149.666 269.674 147.86 268.532C146.054 267.353 143.455 266.763 140.063 266.763H127.114C126.477 266.763 125.961 266.248 125.961 265.612V264.544C125.961 263.908 126.477 263.392 127.114 263.392H138.736C141.832 263.392 144.229 262.803 145.925 261.624C147.657 260.445 148.524 258.695 148.524 256.374C148.524 254.016 147.657 252.266 145.925 251.124C144.229 249.945 141.832 249.356 138.736 249.356H127.556C126.92 249.356 126.404 249.871 126.404 250.507V280.146Z" fill="white"/>
<path d="M180.924 285C178.011 285 175.302 284.521 172.795 283.563C170.325 282.569 168.168 281.187 166.325 279.419C164.518 277.613 163.099 275.532 162.067 273.174C161.071 270.779 160.574 268.163 160.574 265.327C160.574 262.49 161.071 259.892 162.067 257.535C163.099 255.14 164.518 253.058 166.325 251.29C168.168 249.485 170.325 248.103 172.795 247.145C175.265 246.15 177.975 245.653 180.924 245.653C183.836 245.653 186.528 246.15 188.998 247.145C191.468 248.103 193.606 249.466 195.412 251.235C197.256 253.003 198.675 255.085 199.67 257.479C200.703 259.874 201.219 262.49 201.219 265.327C201.219 268.163 200.703 270.779 199.67 273.174C198.675 275.569 197.256 277.65 195.412 279.419C193.606 281.187 191.468 282.569 188.998 283.563C186.528 284.521 183.836 285 180.924 285ZM180.924 281.353C183.247 281.353 185.385 280.966 187.339 280.192C189.329 279.382 191.044 278.258 192.482 276.821C193.956 275.348 195.099 273.653 195.91 271.737C196.721 269.784 197.127 267.648 197.127 265.327C197.127 263.006 196.721 260.887 195.91 258.971C195.099 257.019 193.956 255.324 192.482 253.887C191.044 252.414 189.329 251.29 187.339 250.516C185.385 249.706 183.247 249.3 180.924 249.3C178.601 249.3 176.445 249.706 174.454 250.516C172.463 251.29 170.73 252.414 169.256 253.887C167.818 255.324 166.675 257.019 165.827 258.971C165.016 260.887 164.611 263.006 164.611 265.327C164.611 267.611 165.016 269.729 165.827 271.682C166.675 273.634 167.818 275.348 169.256 276.821C170.73 278.258 172.463 279.382 174.454 280.192C176.445 280.966 178.601 281.353 180.924 281.353Z" fill="white"/>
<path d="M222.622 215.285C211.525 198.21 202.147 179.92 194.749 160.993C194.516 160.415 194.079 159.981 193.525 159.72C192.972 159.489 192.331 159.46 191.778 159.691C191.691 159.72 191.632 159.749 191.545 159.807C191.37 159.489 191.225 159.199 191.079 158.881C190.875 158.476 190.496 158.215 190.06 158.099H190.03C189.594 158.013 189.157 158.099 188.807 158.331C188.662 158.447 188.516 158.505 188.341 158.562C188.254 158.36 188.166 158.157 188.079 157.926C187.933 157.55 187.613 157.231 187.234 157.087C186.856 156.942 186.419 156.942 186.04 157.087C185.487 157.318 184.875 157.463 184.293 157.463L183.652 155.987C183.361 155.263 182.574 154.887 181.817 155.09C177.594 156.189 172.992 154.974 168.565 153.816C167.72 153.585 166.847 153.353 166.002 153.151C142.643 147.392 127.848 150.922 115.557 165.306C109.906 159.026 103.47 152.34 94.9943 150.575C89.7226 149.475 88.4702 149.765 81.451 151.299L80.7519 151.443C78.7132 151.877 76.6744 152.427 74.6647 152.948C71.2279 153.845 67.6746 154.771 64.1505 155.234C60.0438 155.784 57.2477 156.074 52.1508 155.061C52.1217 155.061 52.1217 155.061 52.0925 155.061C52.0634 155.061 52.0052 155.061 51.976 155.061C51.9178 155.061 51.8595 155.061 51.7722 155.061C51.743 155.061 51.7139 155.061 51.6848 155.061C51.6265 155.061 51.5392 155.09 51.4809 155.09C51.4518 155.09 51.4227 155.119 51.3935 155.119C51.3353 155.148 51.2479 155.148 51.1897 155.205C51.1605 155.234 51.1314 155.234 51.1023 155.263C51.0732 155.292 51.0149 155.292 50.9858 155.321L50.9567 155.35C50.9275 155.379 50.8984 155.408 50.8402 155.437C50.811 155.466 50.7528 155.495 50.7237 155.553C50.6945 155.582 50.6654 155.611 50.6363 155.668C50.6072 155.726 50.578 155.755 50.5198 155.813L50.4907 155.842C50.0538 156.566 49.6169 157.26 49.2091 157.984C48.9761 158.099 48.6266 158.128 48.0732 158.128C47.6655 158.157 47.2286 158.157 46.7626 158.244C46.2675 158.331 45.8306 158.678 45.6267 159.141C45.3937 159.662 45.1025 160.241 44.753 160.907C44.2287 161.022 43.3258 161.196 42.5394 161.283C42.0443 161.341 41.5783 161.63 41.3453 162.035C40.9375 162.759 40.5006 163.453 40.0638 164.177C39.5978 163.945 39.0735 163.887 38.5492 164.003C37.9376 164.148 37.4425 164.495 37.1221 165.016C31.9378 173.09 26.7243 181.251 21.2196 189.905C18.3071 194.477 14.8994 199.079 11.317 203.94C7.73458 208.802 4.00653 213.838 0.744485 218.96C0.278479 219.684 0.278477 220.639 0.715358 221.391C1.38524 222.462 4.85116 222.375 4.88029 222.375C45.0442 218.266 71.1114 215.748 99.7126 215.951C102.101 217.021 104.052 218.15 105.8 219.163C107.373 220.06 108.858 220.928 110.46 221.623C112.091 222.346 114.567 223.186 117.304 223.186C119.43 223.186 121.353 222.665 123.042 221.652C124.324 220.87 125.314 219.886 126.275 218.931C127.236 217.976 128.139 217.079 129.129 216.645C130.265 216.124 131.809 216.095 133.149 216.095C169.701 215.603 199.088 216.5 220.496 218.787C221.369 218.873 222.214 218.468 222.68 217.716C223.088 216.963 223.088 216.008 222.622 215.285ZM165.186 156.16C166.002 156.363 166.759 156.566 167.72 156.826C172.118 157.984 176.662 159.199 181.235 158.389L182.137 160.473C188.895 176.245 195.273 191.207 204.214 204.722C197.312 204.027 190.526 201.799 183.39 199.484C178.905 198.008 174.244 196.503 169.526 195.374C158.633 192.827 148.556 192.77 139.527 195.229C130.789 197.632 123.042 202.58 117.654 209.15C116.926 194.738 116.372 183.133 116.955 168.402C128.576 154.164 142.585 150.604 165.186 156.16ZM15.3072 209.179C15.4819 209.323 15.6858 209.439 15.8897 209.468C20.5498 210.655 25.2681 210.828 29.8407 210.423C26.7535 210.828 23.637 211.118 20.5498 211.291C18.4236 211.407 16.4431 211.407 14.4625 210.597C14.7538 210.134 15.0159 209.642 15.3072 209.179ZM175.38 202.204L174.914 202.088C166.526 199.889 157.847 197.603 148.993 198.037C138.944 198.5 129.071 202.667 121.586 209.381C126.45 204.172 133.032 200.236 140.372 198.239C148.876 195.924 158.458 195.953 168.827 198.413C173.4 199.484 177.973 200.989 182.429 202.436C187.264 204.027 192.186 205.619 197.166 206.719C190.555 205.966 183.972 204.432 177.652 202.812C176.895 202.609 176.138 202.407 175.38 202.204ZM49.2091 205.619C50.4033 205.185 51.0732 204.895 51.8013 204.577C52.4129 204.317 53.0537 204.056 54.044 203.68C63.4806 200.091 74.6647 199.455 87.2178 201.741C94.6156 203.072 99.4504 205.532 103.936 209.092C97.3534 205.214 91.4701 203.998 84.8004 203.564C73.1793 202.783 63.6553 204.519 53.5488 206.371L53.2867 206.429C51.7722 206.69 50.2868 206.979 48.7723 207.269L48.1315 207.384C43.8792 208.166 39.5978 208.976 35.2581 209.671C40.2968 208.687 45.0442 207.153 49.2091 205.619ZM21.7439 204.577C27.4816 208.281 33.6562 205.098 38.6075 202.522L39.1317 202.262C61.5292 190.715 81.8296 191.265 103.004 203.998C106.324 205.995 110.926 209.121 113.78 213.722C113.693 213.751 113.605 213.751 113.518 213.78C106.004 206.14 100.12 200.931 87.8003 198.702C74.723 196.329 63.0146 197.024 53.0246 200.786C51.976 201.162 51.3353 201.452 50.6945 201.712C49.9955 202.001 49.3256 202.291 48.1897 202.696C39.9473 205.735 29.2874 208.86 18.8314 206.95C19.5304 205.879 20.2876 204.722 21.074 203.535C21.1323 203.94 21.3653 204.317 21.7439 204.577ZM11.9286 212.825C14.9577 214.504 17.9285 214.532 20.6954 214.388C30.1611 213.896 39.5978 212.13 48.714 210.423C50.4324 210.105 52.1508 209.786 53.8401 209.468L54.0731 209.41C63.9757 207.587 73.325 205.879 84.5674 206.632C91.9652 207.124 98.0524 208.542 105.45 213.751C104.14 213.028 102.683 212.304 101.023 211.552C100.732 211.436 100.441 211.349 100.12 211.349C72.4221 211.118 48.481 213.346 9.01609 217.311C10.0355 215.806 10.9966 214.301 11.9286 212.825ZM116.314 216.008H116.343C117.188 216.008 118.062 216.124 118.877 216.211C119.896 216.356 120.916 216.5 121.935 216.645C121.469 217.079 121.003 217.455 120.537 217.745C117.741 219.452 114.13 218.295 112.236 217.426C111.887 217.282 111.537 217.108 111.188 216.934C112.906 216.414 114.596 216.008 116.314 216.008ZM140.925 209.555C146.808 209.092 152.866 209.728 158.721 210.336L160.672 210.539C164.051 210.886 168.303 211.233 172.934 211.61C160.759 211.378 147.449 211.349 133.003 211.523C132.391 211.523 131.751 211.552 131.051 211.581C134.022 210.51 137.343 209.815 140.925 209.555ZM213.709 211.089C204.71 210.683 175.759 208.947 160.992 207.442L159.041 207.24C153.041 206.632 146.867 205.995 140.692 206.458C133.789 206.979 127.76 208.947 123.159 212.159C130.149 205.619 139.585 201.567 149.167 201.104C157.585 200.728 166.002 202.928 174.186 205.069L174.623 205.185C175.38 205.387 176.138 205.59 176.895 205.764C187.992 208.629 199.875 211.118 211.525 210.018C211.991 209.96 212.399 209.728 212.661 209.352C213.01 209.931 213.36 210.51 213.709 211.089ZM208.787 207.124C208.758 207.124 208.729 207.124 208.7 207.124C208.7 207.095 208.729 207.066 208.729 207.037C208.758 207.066 208.758 207.095 208.787 207.124ZM204.098 198.76C196.875 186.953 191.283 174.016 185.487 160.444C185.545 160.444 185.632 160.415 185.691 160.415C191.574 174.161 197.632 186.808 204.098 198.76ZM114.567 209.468C111.508 205.735 107.606 203.13 104.635 201.336C82.4412 187.994 61.1797 187.387 37.7046 199.513L37.1804 199.773C33.0154 201.944 28.7049 204.143 24.8312 202.667C34.0057 188.602 43.0054 174.19 51.6557 159.778C51.6557 159.749 51.6848 159.749 51.6848 159.72C51.976 159.257 52.2382 158.765 52.5294 158.302C57.3642 159.17 60.335 158.881 64.5 158.302C68.1989 157.81 71.8687 156.855 75.3929 155.929H75.422C77.3734 155.437 79.383 154.916 81.3344 154.482L82.383 154.25C88.8488 152.832 89.5187 152.688 94.2079 153.585C101.984 155.119 108.275 161.948 113.809 168.113C113.256 183.133 113.838 195.403 114.567 209.468Z" fill="white"/>
<path d="M188.283 79.0353C181.031 83.6946 189.098 91.1612 179.953 82.4213C179.545 82.0451 178.904 82.1898 178.7 82.7107C177.623 85.5758 179.254 90.4956 169.06 76.8648C169.002 76.8069 168.943 76.7491 168.885 76.6912C151.148 64.3627 143.954 50.3268 142.556 58.0827C142.556 58.1696 142.556 58.2564 142.556 58.3432C151.818 121.259 170.167 111.622 133.498 122.416C133.148 122.532 132.915 122.879 132.944 123.256C135.129 139.78 133.41 147.826 130.061 159.025C130.061 159.054 130.061 159.083 130.032 159.083C128.081 167.794 144.274 168.084 138.187 175.811C138.1 175.926 137.983 176.013 137.838 176.071C102.8 188.457 130.906 143.716 114.217 135.382C111.683 132.401 110.576 161.572 109.965 163.28C109.935 163.395 109.906 163.511 109.906 163.627C110.372 166.695 112.644 162.932 107.46 181.512C107.46 181.541 107.46 181.57 107.431 181.628C106.732 189.384 90.4797 190.686 91.6447 183.972C91.6738 183.827 91.7321 183.711 91.8486 183.596C107.547 166.781 97.3824 164.495 99.2173 145.366C99.2173 145.308 99.2173 145.279 99.2173 145.221C98.1105 134.774 97.6445 124.384 94.1495 117.265C93.8873 116.744 93.7417 116.165 93.7126 115.558C93.6543 106.268 80.1984 108.67 78.3053 108.67C69.189 110.58 80.5188 79.7878 84.3342 68.9931C84.5963 68.2986 83.7517 67.6908 83.1401 68.1539C69.0725 78.9774 65.1697 82.074 49.1799 74.4339C43.5587 72.0318 47.6071 68.3854 51.2186 65.7518C51.4225 65.6071 51.6555 65.5782 51.8885 65.6361C53.9273 66.3017 55.2379 68.9642 58.1214 66.7647C71.8394 56.6068 83.1401 46.4778 92.8388 32.5577C92.9553 32.413 93.101 32.2972 93.2757 32.2393C96.8581 31.3422 98.6348 31.5158 101.46 28.535C101.693 28.3035 102.013 28.1298 102.334 28.1009C105.654 27.6668 103.004 26.3645 107.285 25.0622C108.537 24.7728 106.47 23.0653 106.673 22.3708C106.295 20.1135 107.343 18.6086 107.081 16.0908C107.081 15.9461 107.081 15.8014 107.11 15.6856C107.46 14.1518 108.246 12.2418 108.042 10.4475C107.984 10.0423 108.071 9.60824 108.334 9.2899C113.722 1.9102 107.809 3.5019 125.139 0.0290971C125.226 0.000157118 125.343 0.000155352 125.43 0.000155352C128.925 -0.0287847 130.469 3.99388 133.702 5.15148C133.964 5.2383 134.197 5.41194 134.343 5.61452C135.653 7.37986 135.158 10.3607 135.42 12.7338C136.935 22.6891 135.362 16.496 133.09 26.596C132.944 27.2906 133.323 28.0141 133.993 28.2745C136.527 29.3164 139.585 29.3453 141.478 31.3711C141.536 31.4579 141.624 31.5158 141.711 31.5737C144.07 33.2812 145.964 34.0625 147.362 36.4356C147.391 36.4935 147.449 36.5514 147.507 36.6093C157.847 45.8122 169.817 55.4492 178.584 65.0862C178.671 65.202 178.817 65.2599 178.963 65.3177C186.797 67.4014 181.875 73.7393 185.603 74.6654C187.263 75.0705 188.457 76.5175 188.574 78.225C188.574 78.2829 188.574 78.3408 188.574 78.3986C188.632 78.6302 188.516 78.8906 188.283 79.0353Z" fill="white"/>
</svg>
