<?xml version="1.0" encoding="UTF-8" standalone="no"?>
<!DOCTYPE svg PUBLIC "-//W3C//DTD SVG 1.1//EN"
 "http://www.w3.org/Graphics/SVG/1.1/DTD/svg11.dtd">
<!-- Generated by graphviz version 2.43.0 (0)
 -->
<!-- Title: G Pages: 1 -->
<svg width="1535pt" height="658pt"
 viewBox="0.00 0.00 1535.20 658.20" xmlns="http://www.w3.org/2000/svg" xmlns:xlink="http://www.w3.org/1999/xlink">
<g id="graph0" class="graph" transform="scale(1 1) rotate(0) translate(21.6 636.6)">
<title>G</title>
<polygon fill="#111111" stroke="transparent" points="-21.6,21.6 -21.6,-636.6 1513.6,-636.6 1513.6,21.6 -21.6,21.6"/>
<!-- node_servers/database_server/controllers/database.js -->
<g id="node1" class="node">
<title>node_servers/database_server/controllers/database.js</title>
<path fill="none" stroke="#cfffac" d="M1116.33,-64C1116.33,-64 790.67,-64 790.67,-64 786.83,-64 783,-60.17 783,-56.33 783,-56.33 783,-48.67 783,-48.67 783,-44.83 786.83,-41 790.67,-41 790.67,-41 1116.33,-41 1116.33,-41 1120.17,-41 1124,-44.83 1124,-48.67 1124,-48.67 1124,-56.33 1124,-56.33 1124,-60.17 1120.17,-64 1116.33,-64"/>
<text text-anchor="middle" x="953.5" y="-48.8" font-family="Arial" font-size="14.00" fill="#cfffac">node_servers/database_server/controllers/database.js</text>
</g>
<!-- node_servers/database_server/index.js -->
<g id="node2" class="node">
<title>node_servers/database_server/index.js</title>
<path fill="none" stroke="#c6c5fe" d="M289.83,-105C289.83,-105 53.17,-105 53.17,-105 49.33,-105 45.5,-101.17 45.5,-97.33 45.5,-97.33 45.5,-89.67 45.5,-89.67 45.5,-85.83 49.33,-82 53.17,-82 53.17,-82 289.83,-82 289.83,-82 293.67,-82 297.5,-85.83 297.5,-89.67 297.5,-89.67 297.5,-97.33 297.5,-97.33 297.5,-101.17 293.67,-105 289.83,-105"/>
<text text-anchor="middle" x="171.5" y="-89.8" font-family="Arial" font-size="14.00" fill="#c6c5fe">node_servers/database_server/index.js</text>
</g>
<!-- node_servers/database_server/routes/route_database.js -->
<g id="node3" class="node">
<title>node_servers/database_server/routes/route_database.js</title>
<path fill="none" stroke="#c6c5fe" d="M732.83,-105C732.83,-105 393.17,-105 393.17,-105 389.33,-105 385.5,-101.17 385.5,-97.33 385.5,-97.33 385.5,-89.67 385.5,-89.67 385.5,-85.83 389.33,-82 393.17,-82 393.17,-82 732.83,-82 732.83,-82 736.67,-82 740.5,-85.83 740.5,-89.67 740.5,-89.67 740.5,-97.33 740.5,-97.33 740.5,-101.17 736.67,-105 732.83,-105"/>
<text text-anchor="middle" x="563" y="-89.8" font-family="Arial" font-size="14.00" fill="#c6c5fe">node_servers/database_server/routes/route_database.js</text>
</g>
<!-- node_servers/database_server/index.js&#45;&gt;node_servers/database_server/routes/route_database.js -->
<g id="edge1" class="edge">
<title>node_servers/database_server/index.js&#45;&gt;node_servers/database_server/routes/route_database.js</title>
<path fill="none" stroke="#757575" d="M297.62,-93.5C322.37,-93.5 348.85,-93.5 375.15,-93.5"/>
<polygon fill="#757575" stroke="#757575" points="375.21,-97 385.21,-93.5 375.21,-90 375.21,-97"/>
</g>
<!-- node_servers/database_server/routes/route_database.js&#45;&gt;node_servers/database_server/controllers/database.js -->
<g id="edge2" class="edge">
<title>node_servers/database_server/routes/route_database.js&#45;&gt;node_servers/database_server/controllers/database.js</title>
<path fill="none" stroke="#757575" d="M672.99,-82C722.86,-76.73 782.09,-70.48 833.16,-65.09"/>
<polygon fill="#757575" stroke="#757575" points="833.68,-68.56 843.26,-64.03 832.94,-61.6 833.68,-68.56"/>
</g>
<!-- node_servers/database_server/routes/route_device_info.js -->
<g id="node4" class="node">
<title>node_servers/database_server/routes/route_device_info.js</title>
<path fill="none" stroke="#c6c5fe" d="M739.33,-64C739.33,-64 386.67,-64 386.67,-64 382.83,-64 379,-60.17 379,-56.33 379,-56.33 379,-48.67 379,-48.67 379,-44.83 382.83,-41 386.67,-41 386.67,-41 739.33,-41 739.33,-41 743.17,-41 747,-44.83 747,-48.67 747,-48.67 747,-56.33 747,-56.33 747,-60.17 743.17,-64 739.33,-64"/>
<text text-anchor="middle" x="563" y="-48.8" font-family="Arial" font-size="14.00" fill="#c6c5fe">node_servers/database_server/routes/route_device_info.js</text>
</g>
<!-- node_servers/database_server/routes/route_device_info.js&#45;&gt;node_servers/database_server/controllers/database.js -->
<g id="edge3" class="edge">
<title>node_servers/database_server/routes/route_device_info.js&#45;&gt;node_servers/database_server/controllers/database.js</title>
<path fill="none" stroke="#757575" d="M747.16,-52.5C755.71,-52.5 764.29,-52.5 772.83,-52.5"/>
<polygon fill="#757575" stroke="#757575" points="772.84,-56 782.84,-52.5 772.84,-49 772.84,-56"/>
</g>
<!-- node_servers/database_server/routes/route_homepage.js -->
<g id="node5" class="node">
<title>node_servers/database_server/routes/route_homepage.js</title>
<path fill="none" stroke="#c6c5fe" d="M737.33,-23C737.33,-23 388.67,-23 388.67,-23 384.83,-23 381,-19.17 381,-15.33 381,-15.33 381,-7.67 381,-7.67 381,-3.83 384.83,0 388.67,0 388.67,0 737.33,0 737.33,0 741.17,0 745,-3.83 745,-7.67 745,-7.67 745,-15.33 745,-15.33 745,-19.17 741.17,-23 737.33,-23"/>
<text text-anchor="middle" x="563" y="-7.8" font-family="Arial" font-size="14.00" fill="#c6c5fe">node_servers/database_server/routes/route_homepage.js</text>
</g>
<!-- node_servers/database_server/routes/route_homepage.js&#45;&gt;node_servers/database_server/controllers/database.js -->
<g id="edge4" class="edge">
<title>node_servers/database_server/routes/route_homepage.js&#45;&gt;node_servers/database_server/controllers/database.js</title>
<path fill="none" stroke="#757575" d="M672.99,-23C722.86,-28.27 782.09,-34.52 833.16,-39.91"/>
<polygon fill="#757575" stroke="#757575" points="832.94,-43.4 843.26,-40.97 833.68,-36.44 832.94,-43.4"/>
</g>
<!-- node_servers/website/controllers/authentication.js -->
<g id="node6" class="node">
<title>node_servers/website/controllers/authentication.js</title>
<path fill="none" stroke="#cfffac" d="M1103.33,-227C1103.33,-227 803.67,-227 803.67,-227 799.83,-227 796,-223.17 796,-219.33 796,-219.33 796,-211.67 796,-211.67 796,-207.83 799.83,-204 803.67,-204 803.67,-204 1103.33,-204 1103.33,-204 1107.17,-204 1111,-207.83 1111,-211.67 1111,-211.67 1111,-219.33 1111,-219.33 1111,-223.17 1107.17,-227 1103.33,-227"/>
<text text-anchor="middle" x="953.5" y="-211.8" font-family="Arial" font-size="14.00" fill="#cfffac">node_servers/website/controllers/authentication.js</text>
</g>
<!-- node_servers/website/controllers/c_search.js -->
<g id="node7" class="node">
<title>node_servers/website/controllers/c_search.js</title>
<path fill="none" stroke="#cfffac" d="M1088.83,-147C1088.83,-147 818.17,-147 818.17,-147 814.33,-147 810.5,-143.17 810.5,-139.33 810.5,-139.33 810.5,-131.67 810.5,-131.67 810.5,-127.83 814.33,-124 818.17,-124 818.17,-124 1088.83,-124 1088.83,-124 1092.67,-124 1096.5,-127.83 1096.5,-131.67 1096.5,-131.67 1096.5,-139.33 1096.5,-139.33 1096.5,-143.17 1092.67,-147 1088.83,-147"/>
<text text-anchor="middle" x="953.5" y="-131.8" font-family="Arial" font-size="14.00" fill="#cfffac">node_servers/website/controllers/c_search.js</text>
</g>
<!-- node_servers/website/controllers/helpers.js -->
<g id="node8" class="node">
<title>node_servers/website/controllers/helpers.js</title>
<path fill="none" stroke="#cfffac" d="M692.83,-390C692.83,-390 433.17,-390 433.17,-390 429.33,-390 425.5,-386.17 425.5,-382.33 425.5,-382.33 425.5,-374.67 425.5,-374.67 425.5,-370.83 429.33,-367 433.17,-367 433.17,-367 692.83,-367 692.83,-367 696.67,-367 700.5,-370.83 700.5,-374.67 700.5,-374.67 700.5,-382.33 700.5,-382.33 700.5,-386.17 696.67,-390 692.83,-390"/>
<text text-anchor="middle" x="563" y="-374.8" font-family="Arial" font-size="14.00" fill="#cfffac">node_servers/website/controllers/helpers.js</text>
</g>
<!-- node_servers/website/controllers/middleware.js -->
<g id="node9" class="node">
<title>node_servers/website/controllers/middleware.js</title>
<path fill="none" stroke="#c6c5fe" d="M1096.33,-307C1096.33,-307 810.67,-307 810.67,-307 806.83,-307 803,-303.17 803,-299.33 803,-299.33 803,-291.67 803,-291.67 803,-287.83 806.83,-284 810.67,-284 810.67,-284 1096.33,-284 1096.33,-284 1100.17,-284 1104,-287.83 1104,-291.67 1104,-291.67 1104,-299.33 1104,-299.33 1104,-303.17 1100.17,-307 1096.33,-307"/>
<text text-anchor="middle" x="953.5" y="-291.8" font-family="Arial" font-size="14.00" fill="#c6c5fe">node_servers/website/controllers/middleware.js</text>
</g>
<!-- node_servers/website/controllers/remoteDatabase.js -->
<g id="node10" class="node">
<title>node_servers/website/controllers/remoteDatabase.js</title>
<path fill="none" stroke="#cfffac" d="M1484.33,-287C1484.33,-287 1167.67,-287 1167.67,-287 1163.83,-287 1160,-283.17 1160,-279.33 1160,-279.33 1160,-271.67 1160,-271.67 1160,-267.83 1163.83,-264 1167.67,-264 1167.67,-264 1484.33,-264 1484.33,-264 1488.17,-264 1492,-267.83 1492,-271.67 1492,-271.67 1492,-279.33 1492,-279.33 1492,-283.17 1488.17,-287 1484.33,-287"/>
<text text-anchor="middle" x="1326" y="-271.8" font-family="Arial" font-size="14.00" fill="#cfffac">node_servers/website/controllers/remoteDatabase.js</text>
</g>
<!-- node_servers/website/controllers/middleware.js&#45;&gt;node_servers/website/controllers/remoteDatabase.js -->
<g id="edge5" class="edge">
<title>node_servers/website/controllers/middleware.js&#45;&gt;node_servers/website/controllers/remoteDatabase.js</title>
<path fill="none" stroke="#757575" d="M1104.13,-287.42C1119.2,-286.61 1134.6,-285.78 1149.91,-284.95"/>
<polygon fill="#757575" stroke="#757575" points="1150.16,-288.44 1159.96,-284.41 1149.78,-281.45 1150.16,-288.44"/>
</g>
<!-- node_servers/website/index.js -->
<g id="node11" class="node">
<title>node_servers/website/index.js</title>
<path fill="none" stroke="#c6c5fe" d="M262.33,-287C262.33,-287 80.67,-287 80.67,-287 76.83,-287 73,-283.17 73,-279.33 73,-279.33 73,-271.67 73,-271.67 73,-267.83 76.83,-264 80.67,-264 80.67,-264 262.33,-264 262.33,-264 266.17,-264 270,-267.83 270,-271.67 270,-271.67 270,-279.33 270,-279.33 270,-283.17 266.17,-287 262.33,-287"/>
<text text-anchor="middle" x="171.5" y="-271.8" font-family="Arial" font-size="14.00" fill="#c6c5fe">node_servers/website/index.js</text>
</g>
<!-- node_servers/website/index.js&#45;&gt;node_servers/website/controllers/authentication.js -->
<g id="edge6" class="edge">
<title>node_servers/website/index.js&#45;&gt;node_servers/website/controllers/authentication.js</title>
<path fill="none" stroke="#757575" d="M220.57,-263.97C262.21,-254.52 324.21,-241.72 379,-235.5 515.33,-220.02 670.95,-215.4 785.65,-214.45"/>
<polygon fill="#757575" stroke="#757575" points="785.95,-217.94 795.93,-214.37 785.9,-210.94 785.95,-217.94"/>
</g>
<!-- node_servers/website/index.js&#45;&gt;node_servers/website/controllers/helpers.js -->
<g id="edge7" class="edge">
<title>node_servers/website/index.js&#45;&gt;node_servers/website/controllers/helpers.js</title>
<path fill="none" stroke="#757575" d="M270.33,-272.34C295.64,-275.44 321.72,-282.45 343,-296.5 369.59,-314.06 352.29,-341.12 379,-358.5 390.1,-365.72 402.4,-371.13 415.23,-375.12"/>
<polygon fill="#757575" stroke="#757575" points="414.55,-378.57 425.12,-377.91 416.44,-371.83 414.55,-378.57"/>
</g>
<!-- node_servers/website/routes/route_about.js -->
<g id="node12" class="node">
<title>node_servers/website/routes/route_about.js</title>
<path fill="none" stroke="#cfffac" d="M694.33,-349C694.33,-349 431.67,-349 431.67,-349 427.83,-349 424,-345.17 424,-341.33 424,-341.33 424,-333.67 424,-333.67 424,-329.83 427.83,-326 431.67,-326 431.67,-326 694.33,-326 694.33,-326 698.17,-326 702,-329.83 702,-333.67 702,-333.67 702,-341.33 702,-341.33 702,-345.17 698.17,-349 694.33,-349"/>
<text text-anchor="middle" x="563" y="-333.8" font-family="Arial" font-size="14.00" fill="#cfffac">node_servers/website/routes/route_about.js</text>
</g>
<!-- node_servers/website/index.js&#45;&gt;node_servers/website/routes/route_about.js -->
<g id="edge8" class="edge">
<title>node_servers/website/index.js&#45;&gt;node_servers/website/routes/route_about.js</title>
<path fill="none" stroke="#757575" d="M270.06,-280.64C294.32,-283.78 319.97,-288.73 343,-296.5 360.55,-302.42 361.41,-311.7 379,-317.5 390.15,-321.17 401.86,-324.21 413.75,-326.7"/>
<polygon fill="#757575" stroke="#757575" points="413.28,-330.18 423.77,-328.68 414.63,-323.31 413.28,-330.18"/>
</g>
<!-- node_servers/website/routes/route_device_info.js -->
<g id="node13" class="node">
<title>node_servers/website/routes/route_device_info.js</title>
<path fill="none" stroke="#c6c5fe" d="M711.83,-187C711.83,-187 414.17,-187 414.17,-187 410.33,-187 406.5,-183.17 406.5,-179.33 406.5,-179.33 406.5,-171.67 406.5,-171.67 406.5,-167.83 410.33,-164 414.17,-164 414.17,-164 711.83,-164 711.83,-164 715.67,-164 719.5,-167.83 719.5,-171.67 719.5,-171.67 719.5,-179.33 719.5,-179.33 719.5,-183.17 715.67,-187 711.83,-187"/>
<text text-anchor="middle" x="563" y="-171.8" font-family="Arial" font-size="14.00" fill="#c6c5fe">node_servers/website/routes/route_device_info.js</text>
</g>
<!-- node_servers/website/index.js&#45;&gt;node_servers/website/routes/route_device_info.js -->
<g id="edge9" class="edge">
<title>node_servers/website/index.js&#45;&gt;node_servers/website/routes/route_device_info.js</title>
<path fill="none" stroke="#757575" d="M199.35,-263.89C238.23,-247.53 312.83,-217.88 379,-201.5 400.07,-196.29 422.78,-192.01 444.8,-188.54"/>
<polygon fill="#757575" stroke="#757575" points="445.5,-191.98 454.85,-187.01 444.44,-185.06 445.5,-191.98"/>
</g>
<!-- node_servers/website/routes/route_homepage.js -->
<g id="node14" class="node">
<title>node_servers/website/routes/route_homepage.js</title>
<path fill="none" stroke="#c6c5fe" d="M709.83,-267C709.83,-267 416.17,-267 416.17,-267 412.33,-267 408.5,-263.17 408.5,-259.33 408.5,-259.33 408.5,-251.67 408.5,-251.67 408.5,-247.83 412.33,-244 416.17,-244 416.17,-244 709.83,-244 709.83,-244 713.67,-244 717.5,-247.83 717.5,-251.67 717.5,-251.67 717.5,-259.33 717.5,-259.33 717.5,-263.17 713.67,-267 709.83,-267"/>
<text text-anchor="middle" x="563" y="-251.8" font-family="Arial" font-size="14.00" fill="#c6c5fe">node_servers/website/routes/route_homepage.js</text>
</g>
<!-- node_servers/website/index.js&#45;&gt;node_servers/website/routes/route_homepage.js -->
<g id="edge10" class="edge">
<title>node_servers/website/index.js&#45;&gt;node_servers/website/routes/route_homepage.js</title>
<path fill="none" stroke="#757575" d="M270.03,-270.49C308.81,-268.5 354.51,-266.15 398.09,-263.92"/>
<polygon fill="#757575" stroke="#757575" points="398.42,-267.4 408.23,-263.4 398.07,-260.41 398.42,-267.4"/>
</g>
<!-- node_servers/website/routes/route_search.js -->
<g id="node15" class="node">
<title>node_servers/website/routes/route_search.js</title>
<path fill="none" stroke="#c6c5fe" d="M697.83,-146C697.83,-146 428.17,-146 428.17,-146 424.33,-146 420.5,-142.17 420.5,-138.33 420.5,-138.33 420.5,-130.67 420.5,-130.67 420.5,-126.83 424.33,-123 428.17,-123 428.17,-123 697.83,-123 697.83,-123 701.67,-123 705.5,-126.83 705.5,-130.67 705.5,-130.67 705.5,-138.33 705.5,-138.33 705.5,-142.17 701.67,-146 697.83,-146"/>
<text text-anchor="middle" x="563" y="-130.8" font-family="Arial" font-size="14.00" fill="#c6c5fe">node_servers/website/routes/route_search.js</text>
</g>
<!-- node_servers/website/index.js&#45;&gt;node_servers/website/routes/route_search.js -->
<g id="edge11" class="edge">
<title>node_servers/website/index.js&#45;&gt;node_servers/website/routes/route_search.js</title>
<path fill="none" stroke="#757575" d="M187.5,-263.79C220.16,-239 301.08,-181.35 379,-155.5 389.11,-152.15 399.68,-149.31 410.43,-146.91"/>
<polygon fill="#757575" stroke="#757575" points="411.28,-150.31 420.35,-144.83 409.84,-143.46 411.28,-150.31"/>
</g>
<!-- node_servers/website/routes/route_sign.js -->
<g id="node16" class="node">
<title>node_servers/website/routes/route_sign.js</title>
<path fill="none" stroke="#c6c5fe" d="M1080.33,-408C1080.33,-408 826.67,-408 826.67,-408 822.83,-408 819,-404.17 819,-400.33 819,-400.33 819,-392.67 819,-392.67 819,-388.83 822.83,-385 826.67,-385 826.67,-385 1080.33,-385 1080.33,-385 1084.17,-385 1088,-388.83 1088,-392.67 1088,-392.67 1088,-400.33 1088,-400.33 1088,-404.17 1084.17,-408 1080.33,-408"/>
<text text-anchor="middle" x="953.5" y="-392.8" font-family="Arial" font-size="14.00" fill="#c6c5fe">node_servers/website/routes/route_sign.js</text>
</g>
<!-- node_servers/website/index.js&#45;&gt;node_servers/website/routes/route_sign.js -->
<g id="edge12" class="edge">
<title>node_servers/website/index.js&#45;&gt;node_servers/website/routes/route_sign.js</title>
<path fill="none" stroke="#757575" d="M270.01,-269.48C296.04,-272.4 322.57,-280.03 343,-296.5 380.75,-326.94 339.46,-371.43 379,-399.5 512.37,-494.17 583.45,-400.69 747,-399.5 766.93,-399.35 787.95,-399.13 808.63,-398.87"/>
<polygon fill="#757575" stroke="#757575" points="808.79,-402.37 818.75,-398.74 808.7,-395.37 808.79,-402.37"/>
</g>
<!-- node_servers/website/routes/route_user_profile.js -->
<g id="node17" class="node">
<title>node_servers/website/routes/route_user_profile.js</title>
<path fill="none" stroke="#c6c5fe" d="M712.83,-308C712.83,-308 413.17,-308 413.17,-308 409.33,-308 405.5,-304.17 405.5,-300.33 405.5,-300.33 405.5,-292.67 405.5,-292.67 405.5,-288.83 409.33,-285 413.17,-285 413.17,-285 712.83,-285 712.83,-285 716.67,-285 720.5,-288.83 720.5,-292.67 720.5,-292.67 720.5,-300.33 720.5,-300.33 720.5,-304.17 716.67,-308 712.83,-308"/>
<text text-anchor="middle" x="563" y="-292.8" font-family="Arial" font-size="14.00" fill="#c6c5fe">node_servers/website/routes/route_user_profile.js</text>
</g>
<!-- node_servers/website/index.js&#45;&gt;node_servers/website/routes/route_user_profile.js -->
<g id="edge13" class="edge">
<title>node_servers/website/index.js&#45;&gt;node_servers/website/routes/route_user_profile.js</title>
<path fill="none" stroke="#757575" d="M270.03,-280.76C307.9,-282.8 352.35,-285.2 395,-287.5"/>
<polygon fill="#757575" stroke="#757575" points="395.04,-291 405.22,-288.05 395.42,-284.01 395.04,-291"/>
</g>
<!-- node_servers/website/routes/route_device_info.js&#45;&gt;node_servers/website/controllers/authentication.js -->
<g id="edge14" class="edge">
<title>node_servers/website/routes/route_device_info.js&#45;&gt;node_servers/website/controllers/authentication.js</title>
<path fill="none" stroke="#757575" d="M675.85,-187.02C724.29,-192 781.13,-197.86 830.64,-202.95"/>
<polygon fill="#757575" stroke="#757575" points="830.46,-206.45 840.77,-204 831.18,-199.49 830.46,-206.45"/>
</g>
<!-- node_servers/website/routes/route_device_info.js&#45;&gt;node_servers/website/controllers/remoteDatabase.js -->
<g id="edge15" class="edge">
<title>node_servers/website/routes/route_device_info.js&#45;&gt;node_servers/website/controllers/remoteDatabase.js</title>
<path fill="none" stroke="#757575" d="M719.62,-166.91C832.96,-164.06 989.53,-167.23 1124,-195.5 1186.85,-208.72 1255.43,-239.97 1294.03,-259.27"/>
<polygon fill="#757575" stroke="#757575" points="1292.67,-262.51 1303.18,-263.9 1295.84,-256.26 1292.67,-262.51"/>
</g>
<!-- node_servers/website/routes/route_homepage.js&#45;&gt;node_servers/website/controllers/authentication.js -->
<g id="edge16" class="edge">
<title>node_servers/website/routes/route_homepage.js&#45;&gt;node_servers/website/controllers/authentication.js</title>
<path fill="none" stroke="#757575" d="M675.85,-243.98C724.29,-239 781.13,-233.14 830.64,-228.05"/>
<polygon fill="#757575" stroke="#757575" points="831.18,-231.51 840.77,-227 830.46,-224.55 831.18,-231.51"/>
</g>
<!-- node_servers/website/routes/route_homepage.js&#45;&gt;node_servers/website/controllers/middleware.js -->
<g id="edge17" class="edge">
<title>node_servers/website/routes/route_homepage.js&#45;&gt;node_servers/website/controllers/middleware.js</title>
<path fill="none" stroke="#757575" d="M675.85,-267.02C724.29,-272 781.13,-277.86 830.64,-282.95"/>
<polygon fill="#757575" stroke="#757575" points="830.46,-286.45 840.77,-284 831.18,-279.49 830.46,-286.45"/>
</g>
<!-- node_servers/website/routes/route_homepage.js&#45;&gt;node_servers/website/controllers/remoteDatabase.js -->
<g id="edge18" class="edge">
<title>node_servers/website/routes/route_homepage.js&#45;&gt;node_servers/website/controllers/remoteDatabase.js</title>
<path fill="none" stroke="#757575" d="M717.54,-259.54C842.58,-262.82 1019.15,-267.46 1149.72,-270.89"/>
<polygon fill="#757575" stroke="#757575" points="1149.74,-274.4 1159.83,-271.16 1149.93,-267.4 1149.74,-274.4"/>
</g>
<!-- node_servers/website/routes/route_search.js&#45;&gt;node_servers/website/controllers/authentication.js -->
<g id="edge19" class="edge">
<title>node_servers/website/routes/route_search.js&#45;&gt;node_servers/website/controllers/authentication.js</title>
<path fill="none" stroke="#757575" d="M689.46,-146.04C708.82,-148.64 728.51,-151.77 747,-155.5 804.22,-167.05 868.57,-187.01 909.77,-200.71"/>
<polygon fill="#757575" stroke="#757575" points="908.88,-204.11 919.48,-203.97 911.11,-197.47 908.88,-204.11"/>
</g>
<!-- node_servers/website/routes/route_search.js&#45;&gt;node_servers/website/controllers/c_search.js -->
<g id="edge20" class="edge">
<title>node_servers/website/routes/route_search.js&#45;&gt;node_servers/website/controllers/c_search.js</title>
<path fill="none" stroke="#757575" d="M705.63,-134.86C736.45,-134.94 769.18,-135.03 800.39,-135.11"/>
<polygon fill="#757575" stroke="#757575" points="800.45,-138.61 810.46,-135.13 800.47,-131.61 800.45,-138.61"/>
</g>
<!-- node_servers/website/routes/route_search.js&#45;&gt;node_servers/website/controllers/remoteDatabase.js -->
<g id="edge21" class="edge">
<title>node_servers/website/routes/route_search.js&#45;&gt;node_servers/website/controllers/remoteDatabase.js</title>
<path fill="none" stroke="#757575" d="M657.51,-122.97C794.03,-107.53 1040.7,-85.25 1124,-114.5 1205.23,-143.02 1277.99,-219.73 1309.05,-255.99"/>
<polygon fill="#757575" stroke="#757575" points="1306.59,-258.5 1315.71,-263.89 1311.94,-253.99 1306.59,-258.5"/>
</g>
<!-- node_servers/website/routes/route_sign.js&#45;&gt;node_servers/website/controllers/remoteDatabase.js -->
<g id="edge22" class="edge">
<title>node_servers/website/routes/route_sign.js&#45;&gt;node_servers/website/controllers/remoteDatabase.js</title>
<path fill="none" stroke="#757575" d="M1000.13,-384.94C1034.42,-375.99 1082.43,-362.89 1124,-349.5 1181.22,-331.07 1246.33,-306.4 1286.55,-290.73"/>
<polygon fill="#757575" stroke="#757575" points="1287.93,-293.95 1295.97,-287.04 1285.38,-287.43 1287.93,-293.95"/>
</g>
<!-- node_servers/website/routes/route_user_profile.js&#45;&gt;node_servers/website/controllers/authentication.js -->
<g id="edge23" class="edge">
<title>node_servers/website/routes/route_user_profile.js&#45;&gt;node_servers/website/controllers/authentication.js</title>
<path fill="none" stroke="#757575" d="M695.89,-284.96C713.15,-282.61 730.55,-279.81 747,-276.5 804.63,-264.89 869.39,-244.38 910.53,-230.38"/>
<polygon fill="#757575" stroke="#757575" points="911.89,-233.61 920.21,-227.05 909.62,-226.99 911.89,-233.61"/>
</g>
<!-- node_servers/website/routes/route_user_profile.js&#45;&gt;node_servers/website/controllers/middleware.js -->
<g id="edge24" class="edge">
<title>node_servers/website/routes/route_user_profile.js&#45;&gt;node_servers/website/controllers/middleware.js</title>
<path fill="none" stroke="#757575" d="M720.62,-296.1C744.4,-296.04 768.97,-295.97 792.82,-295.91"/>
<polygon fill="#757575" stroke="#757575" points="793,-299.41 802.99,-295.88 792.98,-292.41 793,-299.41"/>
</g>
<!-- node_servers/website/routes/route_user_profile.js&#45;&gt;node_servers/website/controllers/remoteDatabase.js -->
<g id="edge25" class="edge">
<title>node_servers/website/routes/route_user_profile.js&#45;&gt;node_servers/website/controllers/remoteDatabase.js</title>
<path fill="none" stroke="#757575" d="M661.63,-308.01C773.58,-319.36 962.48,-332.81 1124,-316.5 1174.63,-311.39 1231.36,-299.21 1271.61,-289.45"/>
<polygon fill="#757575" stroke="#757575" points="1272.6,-292.81 1281.47,-287.02 1270.93,-286.01 1272.6,-292.81"/>
</g>
<!-- node_servers/website/public/javascript/alerting.js -->
<g id="node18" class="node">
<title>node_servers/website/public/javascript/alerting.js</title>
<path fill="none" stroke="#cfffac" d="M318.33,-328C318.33,-328 24.67,-328 24.67,-328 20.83,-328 17,-324.17 17,-320.33 17,-320.33 17,-312.67 17,-312.67 17,-308.83 20.83,-305 24.67,-305 24.67,-305 318.33,-305 318.33,-305 322.17,-305 326,-308.83 326,-312.67 326,-312.67 326,-320.33 326,-320.33 326,-324.17 322.17,-328 318.33,-328"/>
<text text-anchor="middle" x="171.5" y="-312.8" font-family="Arial" font-size="14.00" fill="#cfffac">node_servers/website/public/javascript/alerting.js</text>
</g>
<!-- node_servers/website/public/javascript/filters.js -->
<g id="node19" class="node">
<title>node_servers/website/public/javascript/filters.js</title>
<path fill="none" stroke="#cfffac" d="M312.33,-369C312.33,-369 30.67,-369 30.67,-369 26.83,-369 23,-365.17 23,-361.33 23,-361.33 23,-353.67 23,-353.67 23,-349.83 26.83,-346 30.67,-346 30.67,-346 312.33,-346 312.33,-346 316.17,-346 320,-349.83 320,-353.67 320,-353.67 320,-361.33 320,-361.33 320,-365.17 316.17,-369 312.33,-369"/>
<text text-anchor="middle" x="171.5" y="-353.8" font-family="Arial" font-size="14.00" fill="#cfffac">node_servers/website/public/javascript/filters.js</text>
</g>
<!-- node_servers/website/public/javascript/map.js -->
<g id="node20" class="node">
<title>node_servers/website/public/javascript/map.js</title>
<path fill="none" stroke="#cfffac" d="M309.83,-410C309.83,-410 33.17,-410 33.17,-410 29.33,-410 25.5,-406.17 25.5,-402.33 25.5,-402.33 25.5,-394.67 25.5,-394.67 25.5,-390.83 29.33,-387 33.17,-387 33.17,-387 309.83,-387 309.83,-387 313.67,-387 317.5,-390.83 317.5,-394.67 317.5,-394.67 317.5,-402.33 317.5,-402.33 317.5,-406.17 313.67,-410 309.83,-410"/>
<text text-anchor="middle" x="171.5" y="-394.8" font-family="Arial" font-size="14.00" fill="#cfffac">node_servers/website/public/javascript/map.js</text>
</g>
<!-- node_servers/website/public/javascript/search_page.js -->
<g id="node21" class="node">
<title>node_servers/website/public/javascript/search_page.js</title>
<path fill="none" stroke="#cfffac" d="M335.33,-451C335.33,-451 7.67,-451 7.67,-451 3.83,-451 0,-447.17 0,-443.33 0,-443.33 0,-435.67 0,-435.67 0,-431.83 3.83,-428 7.67,-428 7.67,-428 335.33,-428 335.33,-428 339.17,-428 343,-431.83 343,-435.67 343,-435.67 343,-443.33 343,-443.33 343,-447.17 339.17,-451 335.33,-451"/>
<text text-anchor="middle" x="171.5" y="-435.8" font-family="Arial" font-size="14.00" fill="#cfffac">node_servers/website/public/javascript/search_page.js</text>
</g>
<!-- node_servers/website/public/javascript/searchbar.js -->
<g id="node22" class="node">
<title>node_servers/website/public/javascript/searchbar.js</title>
<path fill="none" stroke="#cfffac" d="M325.83,-492C325.83,-492 17.17,-492 17.17,-492 13.33,-492 9.5,-488.17 9.5,-484.33 9.5,-484.33 9.5,-476.67 9.5,-476.67 9.5,-472.83 13.33,-469 17.17,-469 17.17,-469 325.83,-469 325.83,-469 329.67,-469 333.5,-472.83 333.5,-476.67 333.5,-476.67 333.5,-484.33 333.5,-484.33 333.5,-488.17 329.67,-492 325.83,-492"/>
<text text-anchor="middle" x="171.5" y="-476.8" font-family="Arial" font-size="14.00" fill="#cfffac">node_servers/website/public/javascript/searchbar.js</text>
</g>
<!-- node_servers/website/public/javascript/show_pages.js -->
<g id="node23" class="node">
<title>node_servers/website/public/javascript/show_pages.js</title>
<path fill="none" stroke="#cfffac" d="M334.33,-533C334.33,-533 8.67,-533 8.67,-533 4.83,-533 1,-529.17 1,-525.33 1,-525.33 1,-517.67 1,-517.67 1,-513.83 4.83,-510 8.67,-510 8.67,-510 334.33,-510 334.33,-510 338.17,-510 342,-513.83 342,-517.67 342,-517.67 342,-525.33 342,-525.33 342,-529.17 338.17,-533 334.33,-533"/>
<text text-anchor="middle" x="171.5" y="-517.8" font-family="Arial" font-size="14.00" fill="#cfffac">node_servers/website/public/javascript/show_pages.js</text>
</g>
<!-- node_servers/website/public/javascript/sign_in.js -->
<g id="node24" class="node">
<title>node_servers/website/public/javascript/sign_in.js</title>
<path fill="none" stroke="#cfffac" d="M317.83,-574C317.83,-574 25.17,-574 25.17,-574 21.33,-574 17.5,-570.17 17.5,-566.33 17.5,-566.33 17.5,-558.67 17.5,-558.67 17.5,-554.83 21.33,-551 25.17,-551 25.17,-551 317.83,-551 317.83,-551 321.67,-551 325.5,-554.83 325.5,-558.67 325.5,-558.67 325.5,-566.33 325.5,-566.33 325.5,-570.17 321.67,-574 317.83,-574"/>
<text text-anchor="middle" x="171.5" y="-558.8" font-family="Arial" font-size="14.00" fill="#cfffac">node_servers/website/public/javascript/sign_in.js</text>
</g>
<!-- node_servers/website/public/javascript/user_profile.js -->
<g id="node25" class="node">
<title>node_servers/website/public/javascript/user_profile.js</title>
<path fill="none" stroke="#cfffac" d="M331.33,-615C331.33,-615 11.67,-615 11.67,-615 7.83,-615 4,-611.17 4,-607.33 4,-607.33 4,-599.67 4,-599.67 4,-595.83 7.83,-592 11.67,-592 11.67,-592 331.33,-592 331.33,-592 335.17,-592 339,-595.83 339,-599.67 339,-599.67 339,-607.33 339,-607.33 339,-611.17 335.17,-615 331.33,-615"/>
<text text-anchor="middle" x="171.5" y="-599.8" font-family="Arial" font-size="14.00" fill="#cfffac">node_servers/website/public/javascript/user_profile.js</text>
</g>
</g>
</svg>
